<svg width="40" height="40" viewBox="0 0 40 40" fill="none" xmlns="http://www.w3.org/2000/svg">
<path d="M25 14H30V16H28V29C28 29.2652 27.8946 29.5196 27.7071 29.7071C27.5196 29.8946 27.2652 30 27 30H13C12.7348 30 12.4804 29.8946 12.2929 29.7071C12.1054 29.5196 12 29.2652 12 29V16H10V14H15V11C15 10.7348 15.1054 10.4804 15.2929 10.2929C15.4804 10.1054 15.7348 10 16 10H24C24.2652 10 24.5196 10.1054 24.7071 10.2929C24.8946 10.4804 25 10.7348 25 11V14ZM26 16H14V28H26V16ZM17 19H19V25H17V19ZM21 19H23V25H21V19ZM17 12V14H23V12H17Z" fill="#18FFFF"/>
</svg>
