<svg width="24" height="24" viewBox="0 0 24 24" fill="none" xmlns="http://www.w3.org/2000/svg">
<path d="M20.6434 3H3.35661C2.60539 3 2 3.6069 2 4.35999V20.64C2 21.3931 2.60539 22 3.35661 22H20.6434C21.3946 22 22 21.3931 22 20.64V4.35999C22 3.6069 21.3946 3 20.6434 3ZM3.35661 4.35999H20.6434V20.5H3.35661V4.35999ZM19.9673 19.311H4.0327V14.952C4.0327 14.4735 4.20062 14.0128 4.50552 13.6451L8.45603 8.89625C8.88025 8.40009 9.65798 8.4311 10.0424 8.95827L14.5409 15.0671L16.852 12.6218C17.2541 12.1965 17.9258 12.1965 18.3323 12.6218L19.4856 13.9907C19.795 14.3584 19.9673 14.8235 19.9673 15.3064V19.3155V19.311ZM15.5616 7.92609C15.5616 6.89391 16.3968 6.05666 17.4264 6.05666C18.456 6.05666 19.2912 6.89391 19.2912 7.92609C19.2912 8.95827 18.456 9.79552 17.4264 9.79552C16.3968 9.79552 15.5616 8.95827 15.5616 7.92609Z" fill="#18FFFF" fill-opacity="0.46"/>
</svg>
