<svg width="32" height="32" viewBox="0 0 32 32" fill="none" xmlns="http://www.w3.org/2000/svg">
<path d="M23.1514 11.9442L24.4107 10.6849L28.494 14.7683L28.4957 14.7666L29.7549 16.0258L29.7532 16.0275L29.7549 16.0292L28.4957 17.2885L28.494 17.2868L24.4107 21.3701L23.1514 20.1109L26.3736 16.8887H10.6668V15.1109H26.3181L23.1514 11.9442Z" fill="#18FFFF"/>
<path d="M6.44461 27.1109C6.14992 27.1109 5.3335 27.1109 5.3335 27.1109C5.3335 27.1109 5.3335 26.2945 5.3335 25.9998V5.99978C5.3335 5.7051 5.3335 4.88867 5.3335 4.88867C5.3335 4.88867 6.14992 4.88867 6.44461 4.88867H22.0002C22.2948 4.88867 23.1113 4.88867 23.1113 4.88867C23.1113 4.88867 23.1113 5.7051 23.1113 5.99978V9.33312H20.8891V7.11089H7.55572V24.8887H20.8891V22.6665H23.1113V25.9998C23.1113 26.2945 23.1113 27.1109 23.1113 27.1109C23.1113 27.1109 22.2948 27.1109 22.0002 27.1109H6.44461Z" fill="#18FFFF"/>
</svg>
