<svg width="32" height="32" viewBox="0 0 32 32" fill="none" xmlns="http://www.w3.org/2000/svg">
<g clip-path="url(#clip0_645_23485)">
<path fill-rule="evenodd" clip-rule="evenodd" d="M31.9999 15.3318C31.9997 15.8135 31.5969 16.204 31.1004 16.204H28.4048C27.9091 16.2031 27.5076 15.8128 27.5076 15.3318C27.5076 14.8508 27.9091 14.4606 28.4048 14.4596H31.1004C31.3389 14.4596 31.5677 14.5512 31.7365 14.7149C31.9052 14.8784 31.9999 15.1004 31.9999 15.3318ZM29.9398 19.9461L28.1431 18.2028C27.9749 18.0389 27.7461 17.9465 27.5079 17.9463C27.2693 17.946 27.0406 18.0377 26.8718 18.2012C26.7031 18.3646 26.6084 18.5866 26.6084 18.818C26.6086 19.0494 26.7036 19.2712 26.8723 19.4346L28.6685 21.1773C29.0191 21.5171 29.5869 21.5171 29.9376 21.1773C30.2885 20.8376 30.2892 20.2867 29.9398 19.9458L29.9398 19.9461ZM29.9398 9.48653C29.7711 9.32306 29.5425 9.23093 29.304 9.23093C29.0658 9.23093 28.837 9.32306 28.6685 9.48653L26.8723 11.2292C26.7039 11.3927 26.6094 11.6145 26.6096 11.8456C26.6096 12.0766 26.7044 12.2983 26.8728 12.4615C27.2237 12.8017 27.7925 12.8015 28.1431 12.461L29.9398 10.7178C30.108 10.5546 30.2028 10.3331 30.2028 10.1022C30.2028 9.87123 30.108 9.64975 29.9398 9.48653ZM22.117 4.00054L22.1168 4.00029C22.8315 4.00102 23.5166 4.27693 24.0221 4.7671C24.5273 5.25749 24.8116 5.92222 24.8124 6.61549V22.3057C24.8124 23.1934 24.3481 24.0206 23.5795 24.5022C22.8109 24.9842 21.8426 25.0545 21.0087 24.6894C20.1745 24.3245 19.5881 23.5737 19.4518 22.6957L18.6326 21.9008C17.1258 20.485 15.111 19.6926 13.0135 19.6902H12.1148V24.0486C12.1155 24.7428 11.8319 25.4088 11.3262 25.8996C10.8206 26.3908 10.1347 26.6667 9.41913 26.6667C8.70384 26.6667 8.01771 26.3908 7.51227 25.8996C7.00658 25.4088 6.72297 24.7428 6.72373 24.0486V19.5397C5.95811 19.2745 5.35549 18.6898 5.0821 17.947H4.92708C3.64306 17.947 2.45672 17.2825 1.81474 16.2035C1.17276 15.1248 1.17276 13.7956 1.81474 12.7168C2.45672 11.6378 3.64306 10.9734 4.92708 10.9734H5.0821C5.26827 10.4639 5.61246 10.0228 6.06727 9.71064C6.52211 9.3987 7.06546 9.23089 7.62245 9.23065H13.0135C15.111 9.22823 17.1255 8.43555 18.6326 7.02L19.4518 6.22515C19.5487 5.60659 19.871 5.04198 20.3597 4.63379C20.8487 4.22585 21.472 4.00094 22.1168 4.00002L22.117 4.00054ZM4.92673 16.2043V12.7166C4.2852 12.7176 3.6928 13.0501 3.37232 13.5893C3.05156 14.1283 3.05156 14.7926 3.37232 15.3316C3.69282 15.8709 4.28527 16.2033 4.92673 16.2043V16.2043ZM10.3178 24.0494V19.6907H8.52161V24.0491C8.52137 24.2805 8.61558 24.5025 8.78405 24.6665C8.95253 24.8302 9.18132 24.9221 9.41983 24.9221C9.65809 24.9221 9.88688 24.8302 10.0554 24.6665C10.2238 24.5025 10.3183 24.2805 10.3178 24.0491L10.3178 24.0494ZM12.1145 17.9475V10.974H7.62213C7.12592 10.975 6.72417 11.365 6.72341 11.8465V17.0757C6.72441 17.5569 7.12616 17.9469 7.62213 17.9477L12.1145 17.9475ZM19.4211 20.2341V8.68716C17.8679 9.97432 15.9399 10.7599 13.9052 10.9346V17.9873C15.9402 18.1602 17.8687 18.9456 19.4211 20.234V20.2341ZM23.0155 6.61585V6.61561C23.0155 6.13441 22.6132 5.74413 22.1173 5.74413C21.621 5.74413 21.2188 6.13441 21.2188 6.61561V22.3058C21.2188 22.787 21.621 23.1773 22.1173 23.1773C22.6132 23.1773 23.0155 22.787 23.0155 22.3058V6.61585Z" fill="#18FFFF"/>
</g>
<defs>
<clipPath id="clip0_645_23485">
<rect width="32" height="32" fill="white"/>
</clipPath>
</defs>
</svg>
