<svg width="20" height="20" viewBox="0 0 20 20" fill="none" xmlns="http://www.w3.org/2000/svg">
<mask id="path-1-inside-1_1_78" fill="white">
<path fill-rule="evenodd" clip-rule="evenodd" d="M20 0H5L0 5V20H15L20 15V0Z"/>
</mask>
<path d="M5 0V-2H4.17157L3.58579 -1.41421L5 0ZM20 0H22V-2H20V0ZM0 5L-1.41421 3.58579L-2 4.17157V5H0ZM0 20H-2V22H0V20ZM15 20V22H15.8284L16.4142 21.4142L15 20ZM20 15L21.4142 16.4142L22 15.8284V15H20ZM5 2H20V-2H5V2ZM1.41421 6.41421L6.41421 1.41421L3.58579 -1.41421L-1.41421 3.58579L1.41421 6.41421ZM2 20V5H-2V20H2ZM15 18H0V22H15V18ZM18.5858 13.5858L13.5858 18.5858L16.4142 21.4142L21.4142 16.4142L18.5858 13.5858ZM18 0V15H22V0H18Z" fill="grey" mask="url(#path-1-inside-1_1_78)"/>
</svg>
