<svg width="20" height="20" viewBox="0 0 15 15" fill="none" xmlns="http://www.w3.org/2000/svg">
<path d="M11.828 10.7243L14.8023 13.6979L13.8196 14.6806L10.846 11.7062C9.73958 12.5932 8.36337 13.0756 6.94531 13.0736C3.49531 13.0736 0.695312 10.2736 0.695312 6.82361C0.695312 3.37361 3.49531 0.573608 6.94531 0.573608C10.3953 0.573608 13.1953 3.37361 13.1953 6.82361C13.1973 8.24166 12.7149 9.61787 11.828 10.7243ZM10.4349 10.209C11.3162 9.3027 11.8084 8.0878 11.8064 6.82361C11.8064 4.1375 9.63073 1.9625 6.94531 1.9625C4.2592 1.9625 2.0842 4.1375 2.0842 6.82361C2.0842 9.50903 4.2592 11.6847 6.94531 11.6847C8.2095 11.6867 9.4244 11.1945 10.3307 10.3132L10.4349 10.209Z" fill="#18FFFF"/>
</svg>
