<svg width="32" height="32" viewBox="0 0 32 32" fill="none" xmlns="http://www.w3.org/2000/svg">
<g clip-path="url(#clip0_645_23479)">
<path d="M27.9999 17.656V26.6667H29.3333V29.3333H2.66659V26.6667H3.99992V17.656C3.17908 17.1081 2.5062 16.366 2.04101 15.4957C1.57582 14.6253 1.33271 13.6535 1.33325 12.6667C1.33325 11.564 1.63192 10.5013 2.17725 9.59599L5.79325 3.33332C5.91027 3.13064 6.07859 2.96232 6.28127 2.8453C6.48396 2.72827 6.71388 2.66666 6.94792 2.66666H25.0533C25.2873 2.66666 25.5172 2.72827 25.7199 2.8453C25.9226 2.96232 26.0909 3.13064 26.2079 3.33332L29.8106 9.57599C30.606 10.8972 30.8617 12.474 30.5245 13.9788C30.1872 15.4837 29.2831 16.8006 27.9999 17.656ZM25.3333 18.6293C24.4165 18.7322 23.4884 18.622 22.6211 18.3075C21.7539 17.993 20.971 17.4826 20.3333 16.816C19.7735 17.4014 19.101 17.8674 18.3562 18.1857C17.6114 18.504 16.8099 18.668 15.9999 18.668C15.1902 18.6684 14.3887 18.5047 13.644 18.1869C12.8992 17.869 12.2265 17.4036 11.6666 16.8187C11.0288 17.485 10.2458 17.9952 9.37852 18.3095C8.51129 18.6238 7.58324 18.7337 6.66659 18.6307V26.6667H25.3333V18.6293ZM7.71859 5.33332L4.47459 10.9507C4.15936 11.7295 4.14989 12.5987 4.44809 13.3842C4.74629 14.1698 5.33016 14.8137 6.08283 15.1872C6.8355 15.5607 7.70145 15.6361 8.50736 15.3984C9.31328 15.1607 9.9997 14.6275 10.4293 13.9053C10.8759 12.7893 12.4559 12.7893 12.9039 13.9053C13.151 14.5245 13.5781 15.0555 14.13 15.4295C14.6819 15.8035 15.3332 16.0034 15.9999 16.0034C16.6666 16.0034 17.318 15.8035 17.8699 15.4295C18.4218 15.0555 18.8489 14.5245 19.0959 13.9053C19.5426 12.7893 21.1226 12.7893 21.5706 13.9053C21.7436 14.3313 22.0029 14.7168 22.3321 15.0377C22.6613 15.3586 23.0533 15.6079 23.4836 15.77C23.9138 15.9321 24.3729 16.0035 24.832 15.9796C25.2911 15.9557 25.7403 15.8371 26.1514 15.6312C26.5625 15.4254 26.9265 15.1367 27.2206 14.7834C27.5148 14.43 27.7326 14.0197 27.8605 13.5781C27.9884 13.1365 28.0236 12.6732 27.9639 12.2174C27.9041 11.7616 27.7507 11.323 27.5133 10.9293L24.2799 5.33332H7.71859Z" fill="#18FFFF"/>
</g>
<defs>
<clipPath id="clip0_645_23479">
<rect width="32" height="32" fill="white"/>
</clipPath>
</defs>
</svg>
