<svg width="32" height="32" viewBox="0 0 32 32" fill="none" xmlns="http://www.w3.org/2000/svg">
<g clip-path="url(#clip0_645_23444)">
<path d="M6.66659 2.66669H25.3333C25.6869 2.66669 26.026 2.80716 26.2761 3.05721C26.5261 3.30726 26.6666 3.6464 26.6666 4.00002V29.524C26.6667 29.6432 26.6349 29.7603 26.5744 29.863C26.514 29.9658 26.4271 30.0504 26.3228 30.1081C26.2185 30.1659 26.1006 30.1946 25.9814 30.1913C25.8623 30.188 25.7462 30.1528 25.6453 30.0894L15.9999 24.04L6.35458 30.088C6.25374 30.1514 6.13777 30.1866 6.01872 30.1899C5.89967 30.1933 5.7819 30.1647 5.67765 30.1071C5.57339 30.0495 5.48646 29.9651 5.4259 29.8626C5.36533 29.76 5.33334 29.6431 5.33325 29.524V4.00002C5.33325 3.6464 5.47373 3.30726 5.72378 3.05721C5.97382 2.80716 6.31296 2.66669 6.66659 2.66669ZM23.9999 5.33335H7.99992V25.9094L15.9999 20.8947L23.9999 25.9094V5.33335Z" fill="#18FFFF"/>
</g>
<defs>
<clipPath id="clip0_645_23444">
<rect width="32" height="32" fill="white"/>
</clipPath>
</defs>
</svg>
