<svg width="32" height="32" viewBox="0 0 32 32" fill="none" xmlns="http://www.w3.org/2000/svg">
<path d="M2.66675 16C2.66675 14.8467 2.81341 13.7293 3.08808 12.6613C3.8247 12.7001 4.55768 12.5343 5.206 12.1825C5.85432 11.8306 6.39272 11.3064 6.76169 10.6677C7.13066 10.0289 7.31582 9.30062 7.29671 8.56323C7.27761 7.82584 7.05497 7.10809 6.65341 6.48933C8.26534 4.90342 10.2545 3.75399 12.4334 3.14933C12.7681 3.80729 13.2783 4.35982 13.9075 4.74574C14.5368 5.13167 15.2606 5.33594 15.9987 5.33594C16.7369 5.33594 17.4607 5.13167 18.09 4.74574C18.7192 4.35982 19.2294 3.80729 19.5641 3.14933C21.743 3.75399 23.7322 4.90342 25.3441 6.48933C24.9421 7.1082 24.7191 7.82622 24.6999 8.56395C24.6806 9.30168 24.8658 10.0304 25.235 10.6693C25.6042 11.3083 26.1429 11.8328 26.7917 12.1846C27.4404 12.5363 28.1738 12.7018 28.9107 12.6627C29.1854 13.7293 29.3321 14.8467 29.3321 16C29.3321 17.1533 29.1854 18.2707 28.9107 19.3387C28.174 19.2997 27.4409 19.4652 26.7923 19.8169C26.1438 20.1687 25.6052 20.6929 25.2361 21.3317C24.867 21.9705 24.6817 22.6989 24.7007 23.4364C24.7198 24.1739 24.9424 24.8918 25.3441 25.5107C23.7322 27.0966 21.743 28.246 19.5641 28.8507C19.2294 28.1927 18.7192 27.6402 18.09 27.2542C17.4607 26.8683 16.7369 26.6641 15.9987 26.6641C15.2606 26.6641 14.5368 26.8683 13.9075 27.2542C13.2783 27.6402 12.7681 28.1927 12.4334 28.8507C10.2545 28.246 8.26534 27.0966 6.65341 25.5107C7.05542 24.8918 7.27839 24.1738 7.29764 23.436C7.31689 22.6983 7.13168 21.9696 6.7625 21.3306C6.39331 20.6917 5.85455 20.1672 5.20582 19.8154C4.55709 19.4636 3.82369 19.2982 3.08675 19.3373C2.81341 18.272 2.66675 17.1547 2.66675 16ZM9.07208 20C9.91208 21.4547 10.1521 23.128 9.82408 24.6987C10.3681 25.0853 10.9467 25.42 11.5534 25.6987C12.7756 24.6038 14.3592 23.9989 16.0001 24C17.6801 24 19.2507 24.628 20.4467 25.6987C21.0534 25.42 21.6321 25.0853 22.1761 24.6987C21.8393 23.0933 22.1071 21.4201 22.9281 20C23.7476 18.5792 25.0628 17.5109 26.6214 17C26.6831 16.3348 26.6831 15.6652 26.6214 15C25.0623 14.4894 23.7466 13.4211 22.9267 12C22.1058 10.5799 21.838 8.90671 22.1747 7.30133C21.6309 6.91456 21.0519 6.57976 20.4454 6.30133C19.2235 7.39591 17.6405 8.00081 16.0001 8C14.3592 8.00114 12.7756 7.39621 11.5534 6.30133C10.9469 6.57976 10.3679 6.91457 9.82408 7.30133C10.1608 8.90671 9.89305 10.5799 9.07208 12C8.25258 13.4208 6.93739 14.4891 5.37875 15C5.31709 15.6652 5.31709 16.3348 5.37875 17C6.93789 17.5106 8.25359 18.5789 9.07341 20H9.07208ZM16.0001 20C14.9392 20 13.9218 19.5786 13.1717 18.8284C12.4215 18.0783 12.0001 17.0609 12.0001 16C12.0001 14.9391 12.4215 13.9217 13.1717 13.1716C13.9218 12.4214 14.9392 12 16.0001 12C17.0609 12 18.0784 12.4214 18.8285 13.1716C19.5787 13.9217 20.0001 14.9391 20.0001 16C20.0001 17.0609 19.5787 18.0783 18.8285 18.8284C18.0784 19.5786 17.0609 20 16.0001 20ZM16.0001 17.3333C16.3537 17.3333 16.6928 17.1929 16.9429 16.9428C17.1929 16.6928 17.3334 16.3536 17.3334 16C17.3334 15.6464 17.1929 15.3072 16.9429 15.0572C16.6928 14.8071 16.3537 14.6667 16.0001 14.6667C15.6465 14.6667 15.3073 14.8071 15.0573 15.0572C14.8072 15.3072 14.6667 15.6464 14.6667 16C14.6667 16.3536 14.8072 16.6928 15.0573 16.9428C15.3073 17.1929 15.6465 17.3333 16.0001 17.3333Z" fill="#18FFFF"/>
</svg>
