<svg width="32" height="32" viewBox="0 0 32 32" fill="none" xmlns="http://www.w3.org/2000/svg">
<g clip-path="url(#clip0_645_23492)">
<path d="M26.6667 4.42733C26.6667 3.60671 26.3407 2.81992 25.7604 2.23963C25.1801 1.65933 24.3933 1.33333 23.5727 1.33333H8.10303C7.28241 1.33333 6.49536 1.6593 5.91534 2.23963C5.33504 2.81994 5.00903 3.60671 5.00903 4.42733V26.8586C5.00903 27.6792 5.33501 28.466 5.91534 29.0463C6.49538 29.6266 7.28241 29.9526 8.10303 29.9526H23.5727C24.3933 29.9526 25.1801 29.6266 25.7604 29.0463C26.3407 28.466 26.6667 27.6792 26.6667 26.8586V4.42733ZM25.1196 26.8586C25.1196 27.2689 24.9567 27.6623 24.6667 27.9523C24.3764 28.2426 23.983 28.4054 23.5727 28.4054H8.10307C7.69276 28.4054 7.2991 28.2426 7.00909 27.9523C6.71907 27.6623 6.55595 27.2689 6.55595 26.8586V4.42733C6.55595 4.01702 6.71907 3.62363 7.00909 3.33362C7.29911 3.04333 7.6928 2.88048 8.10307 2.88048H23.5727C23.983 2.88048 24.3764 3.04333 24.6667 3.33362C24.9567 3.62364 25.1196 4.01705 25.1196 4.42733V26.8586Z" fill="#18FFFF"/>
<path d="M23.5728 5.20019C23.5728 4.99503 23.4914 4.79833 23.3463 4.65319C23.2011 4.50805 23.0044 4.42662 22.7993 4.42662H8.48965C8.06242 4.42662 7.71606 4.77295 7.71606 5.20021V9.45425C7.71606 9.6594 7.79749 9.8561 7.94264 10.0012C8.08751 10.1464 8.28448 10.2278 8.48963 10.2278H22.7993C23.0044 10.2278 23.2011 10.1464 23.3462 10.0012C23.4914 9.8561 23.5728 9.6594 23.5728 9.45425L23.5728 5.20019ZM22.026 8.68098H9.26355V5.97377H22.026V8.68098Z" fill="#18FFFF"/>
<path d="M12.3579 17.5778C12.3579 17.3727 12.2765 17.176 12.1313 17.0308C11.9865 16.886 11.7895 16.8045 11.5844 16.8045H8.49063C8.06339 16.8045 7.71704 17.1506 7.71704 17.5778V20.6718C7.71704 20.877 7.79847 21.0737 7.94361 21.2188C8.08849 21.364 8.28545 21.4454 8.49061 21.4454H11.5846H11.5843C11.7895 21.4454 11.9865 21.364 12.1313 21.2188C12.2765 21.0737 12.3579 20.877 12.3579 20.6718L12.3579 17.5778ZM10.8111 19.5114L9.26399 19.5117V18.3513H10.8108L10.8111 19.5114Z" fill="#18FFFF"/>
<path d="M12.3579 22.9902C12.3579 22.785 12.2765 22.5883 12.1313 22.4432C11.9865 22.2983 11.7895 22.2169 11.5844 22.2169H8.49063C8.06339 22.2169 7.71704 22.5629 7.71704 22.9902V26.0842C7.71704 26.2893 7.79847 26.486 7.94361 26.6312C8.08849 26.7763 8.28545 26.8578 8.49061 26.8578H11.5846H11.5843C11.7895 26.8578 11.9865 26.7763 12.1313 26.6312C12.2765 26.486 12.3579 26.2893 12.3579 26.0842L12.3579 22.9902ZM10.8111 25.3106H9.26399V23.7638H10.8108L10.8111 25.3106Z" fill="#18FFFF"/>
<path d="M17.7717 17.5778C17.7717 17.3727 17.6903 17.176 17.5452 17.0308C17.4003 16.886 17.2033 16.8045 16.9982 16.8045H13.9044C13.4772 16.8045 13.1309 17.1506 13.1309 17.5778V20.6718C13.1309 20.877 13.2123 21.0737 13.3574 21.2188C13.5023 21.364 13.6993 21.4454 13.9044 21.4454H16.9984H16.9982C17.2033 21.4454 17.4003 21.364 17.5452 21.2188C17.6903 21.0737 17.7717 20.877 17.7717 20.6718L17.7717 17.5778ZM16.2249 19.8982H14.6778V18.3514H16.2246L16.2249 19.8982Z" fill="#18FFFF"/>
<path d="M17.7717 22.9902C17.7717 22.785 17.6903 22.5883 17.5452 22.4432C17.4003 22.2983 17.2033 22.2169 16.9982 22.2169H13.9044C13.4772 22.2169 13.1309 22.5629 13.1309 22.9902V26.0842C13.1309 26.2893 13.2123 26.486 13.3574 26.6312C13.5023 26.7763 13.6993 26.8578 13.9044 26.8578H16.9984H16.9982C17.2033 26.8578 17.4003 26.7763 17.5452 26.6312C17.6903 26.486 17.7717 26.2893 17.7717 26.0842L17.7717 22.9902ZM16.2249 25.3106H14.6778V23.7638H16.2246L16.2249 25.3106Z" fill="#18FFFF"/>
<path d="M23.1865 17.5778C23.1865 17.3727 23.1051 17.176 22.96 17.0308C22.8151 16.886 22.6181 16.8045 22.413 16.8045H19.3192C18.892 16.8045 18.5457 17.1506 18.5457 17.5778V26.0859C18.5457 26.2911 18.6271 26.4878 18.7722 26.6329C18.9171 26.778 19.1141 26.8595 19.3192 26.8595H22.4132H22.413C22.6181 26.8595 22.8151 26.7781 22.9599 26.6329C23.1051 26.4878 23.1865 26.2911 23.1865 26.0859L23.1865 17.5778ZM21.6397 25.313H20.0926V18.3514H21.6394L21.6397 25.313Z" fill="#18FFFF"/>
<path d="M23.1865 12.1607C23.1865 11.9556 23.1051 11.7589 22.96 11.6137C22.8151 11.4688 22.6181 11.3874 22.413 11.3874H19.3192C18.892 11.3874 18.5457 11.7335 18.5457 12.1607V15.2547C18.5457 15.4599 18.6271 15.6566 18.7722 15.8017C18.9171 15.9468 19.1141 16.0283 19.3192 16.0283H22.4132H22.413C22.6181 16.0283 22.8151 15.9469 22.9599 15.8017C23.1051 15.6566 23.1865 15.4599 23.1865 15.2547L23.1865 12.1607ZM21.6397 14.4811H20.0926V12.9343H21.6394L21.6397 14.4811Z" fill="#18FFFF"/>
<path d="M12.3579 12.1607C12.3579 11.9556 12.2765 11.7589 12.1313 11.6137C11.9865 11.4688 11.7895 11.3874 11.5844 11.3874H8.49063C8.06339 11.3874 7.71704 11.7335 7.71704 12.1607V15.2547C7.71704 15.4599 7.79847 15.6566 7.94361 15.8017C8.08849 15.9468 8.28545 16.0283 8.49061 16.0283H11.5846H11.5843C11.7895 16.0283 11.9865 15.9469 12.1313 15.8017C12.2765 15.6566 12.3579 15.4599 12.3579 15.2547L12.3579 12.1607ZM10.8111 14.4811H9.26399V12.9343H10.8108L10.8111 14.4811Z" fill="#18FFFF"/>
<path d="M17.7717 12.1607C17.7717 11.9556 17.6903 11.7589 17.5452 11.6137C17.4003 11.4688 17.2033 11.3874 16.9982 11.3874H13.9044C13.4772 11.3874 13.1309 11.7335 13.1309 12.1607V15.2547C13.1309 15.4599 13.2123 15.6566 13.3574 15.8017C13.5023 15.9468 13.6993 16.0283 13.9044 16.0283H16.9984H16.9982C17.2033 16.0283 17.4003 15.9469 17.5452 15.8017C17.6903 15.6566 17.7717 15.4599 17.7717 15.2547L17.7717 12.1607ZM16.2249 14.4811H14.6778V12.9343H16.2246L16.2249 14.4811Z" fill="#18FFFF"/>
</g>
<defs>
<clipPath id="clip0_645_23492">
<rect width="32" height="32" fill="white"/>
</clipPath>
</defs>
</svg>
