<svg width="18" height="20" viewBox="0 0 18 20" fill="none" xmlns="http://www.w3.org/2000/svg">
<path fill-rule="evenodd" clip-rule="evenodd" d="M13 1V2H5V1C5 0.45 4.55 0 4 0C3.45 0 3 0.45 3 1V2H2C0.89 2 0.01 2.9 0.01 4L0 18C0 19.1 0.89 20 2 20H16C17.1 20 18 19.1 18 18V4C18 2.9 17.1 2 16 2H15V1C15 0.45 14.55 0 14 0C13.45 0 13 0.45 13 1ZM13.3 11H9.7C9.31 11 9 11.31 9 11.7V15.3C9 15.69 9.31 16 9.7 16H13.3C13.69 16 14 15.69 14 15.3V11.7C14 11.31 13.69 11 13.3 11ZM2.7 18H15.3C15.69 18 16 17.69 16 17.3V7.7C16 7.31 15.69 7 15.3 7H2.7C2.31 7 2 7.31 2 7.7V17.3C2 17.69 2.31 18 2.7 18Z" fill="#18FFFF"/>
</svg>
