<svg width="32" height="32" viewBox="0 0 32 32" fill="none" xmlns="http://www.w3.org/2000/svg">
<g clip-path="url(#clip0_645_23467)">
<path d="M30.6666 20.1903C30.6666 20.0779 30.6481 19.9658 30.6123 19.8587L29.5647 16.7159C29.4226 16.2885 29.0224 15.9999 28.5714 15.9999H24.3809V8.66662C24.3809 8.08809 23.9123 7.61901 23.3333 7.61901H15.1823C15.6851 7.06176 15.9998 6.33171 15.9998 5.52379C15.9998 5.41131 15.9818 5.2993 15.946 5.1922L14.8984 2.04937C14.7558 1.62191 14.3557 1.33334 13.9046 1.33334H3.42849C2.97741 1.33334 2.5773 1.6219 2.43464 2.04961L1.38704 5.19244C1.35126 5.29931 1.33325 5.41131 1.33325 5.5238C1.33325 6.4491 1.74247 7.2736 2.38086 7.84913V14.9525C2.38086 15.5311 2.84994 16.0001 3.42847 16.0001H7.6189V23.3334C7.6189 23.9119 8.08798 24.381 8.66651 24.381H17.0474V29.6191C17.0474 30.1976 17.516 30.6667 18.095 30.6667H28.5711C29.1501 30.6667 29.6187 30.1976 29.6187 29.6191V22.5157C30.2571 21.9402 30.6663 21.1156 30.6663 20.1903H30.6666ZM27.8163 18.0951L28.562 20.332C28.4926 20.843 28.0537 21.2379 27.5238 21.2379C26.9457 21.2379 26.4762 20.7679 26.4762 20.1903C26.4762 19.6118 26.0075 19.1427 25.4285 19.1427C24.8496 19.1427 24.3809 19.6118 24.3809 20.1903C24.3809 20.7679 23.9114 21.2379 23.3333 21.2379C22.7553 21.2379 22.2857 20.7679 22.2857 20.1903C22.2857 19.6118 21.8171 19.1427 21.2381 19.1427C20.6591 19.1427 20.1905 19.6118 20.1905 20.1903C20.1905 20.7679 19.7209 21.2379 19.1429 21.2379C18.613 21.2379 18.1741 20.843 18.1044 20.332L18.8503 18.0951H27.8163ZM4.18407 3.42858H13.1504L13.8956 5.66549C13.8264 6.17644 13.3875 6.57141 12.8576 6.57141C12.28 6.57141 11.81 6.10138 11.81 5.5238C11.81 4.94527 11.3409 4.47619 10.7624 4.47619C10.1839 4.47619 9.71478 4.94527 9.71478 5.5238C9.71478 6.10138 9.24476 6.57141 8.66717 6.57141C8.08959 6.57141 7.61957 6.10138 7.61957 5.5238C7.61957 4.94527 7.15048 4.47619 6.57196 4.47619C5.99343 4.47619 5.52435 4.94527 5.52435 5.5238C5.52435 6.10138 5.05433 6.57141 4.47674 6.57141C3.94686 6.57141 3.50791 6.17644 3.43895 5.66549L4.18407 3.42858ZM4.4766 13.9047V8.66663C5.28081 8.66663 6.01527 8.36287 6.57182 7.86458C7.12836 8.36289 7.86283 8.66663 8.66704 8.66663C9.47124 8.66663 10.2057 8.36287 10.7623 7.86458C11.3188 8.36289 12.0533 8.66663 12.8575 8.66663V13.9047H11.8099V10.7618C11.8099 10.1833 11.3408 9.71424 10.7623 9.71424H6.57182C5.9933 9.71424 5.52421 10.1833 5.52421 10.7618V13.9047H4.4766ZM7.61943 13.9047V11.8095H9.71464V13.9047H7.61943ZM9.71464 15.9999H13.9051C14.4836 15.9999 14.9527 15.5308 14.9527 14.9523V9.71424H22.2859V15.9999H18.0955C17.6444 15.9999 17.2443 16.2885 17.1021 16.7162L16.0541 19.859C16.0183 19.9659 16.0003 20.0779 16.0003 20.1903C16.0003 20.9983 16.315 21.7283 16.8178 22.2856H9.71438L9.71464 15.9999ZM22.2859 28.5712V26.476H24.3812V28.5712H22.2859ZM27.524 28.5712H26.4764V25.4284C26.4764 24.8499 26.0078 24.3808 25.4288 24.3808H21.2383C20.6593 24.3808 20.1907 24.8499 20.1907 25.4284V28.5712H19.1431V23.3332C19.9473 23.3332 20.6818 23.0294 21.2383 22.5311C21.7949 23.0294 22.5293 23.3332 23.3335 23.3332C24.1378 23.3332 24.8722 23.0294 25.4288 22.5311C25.9853 23.0294 26.7198 23.3332 27.524 23.3332V28.5712Z" fill="#18FFFF"/>
</g>
<defs>
<clipPath id="clip0_645_23467">
<rect width="32" height="32" fill="white"/>
</clipPath>
</defs>
</svg>
