<svg width="32" height="32" viewBox="0 0 32 32" fill="none" xmlns="http://www.w3.org/2000/svg">
<g clip-path="url(#clip0_645_23473)">
<path fill-rule="evenodd" clip-rule="evenodd" d="M29.8069 14.4391H19.4341C19.9952 13.7126 20.2981 12.8268 20.2969 11.9163C20.2967 11.452 19.9119 11.0756 19.4371 11.0751H11.9044H11.9046C11.4256 11.0737 10.9556 11.2037 10.5484 11.4501C10.1409 11.6967 9.81253 12.0502 9.60008 12.4703L8.83079 13.9741C8.68566 14.2598 8.38743 14.4398 8.06124 14.4391H2.19153C1.7175 14.4393 1.33325 14.8153 1.33325 15.2793V25.3681C1.333 25.5911 1.42327 25.8051 1.58411 25.9629C1.7452 26.1205 1.96364 26.2093 2.19155 26.2093H10.4871L12.9211 28.5911L12.9214 28.5914C13.256 28.9217 13.6782 29.1544 14.1405 29.2635C14.6029 29.3725 15.0868 29.3535 15.5389 29.2089L23.7196 26.9566C24.1934 26.8278 24.6193 26.5685 24.9467 26.2094H29.8068C30.0349 26.2099 30.2539 26.1213 30.4152 25.9635C30.5763 25.8056 30.6668 25.5914 30.6666 25.3682V15.2793C30.6666 15.0564 30.5761 14.8424 30.4147 14.6848C30.2534 14.5272 30.0347 14.4389 29.8068 14.4391H29.8069ZM4.77022 24.5286H3.05161V16.1204H4.77022V24.5286ZM23.8542 24.7413L23.8539 24.7416C23.7786 25.0314 23.5494 25.259 23.2544 25.3376C23.223 25.3461 15.0483 27.5967 15.0163 27.6067C14.7076 27.7079 14.3672 27.6289 14.1376 27.4032L11.4509 24.7753C11.2899 24.6174 11.0712 24.5286 10.8432 24.5286H6.48863V16.1204H8.06137V16.1207C8.54065 16.1224 9.01069 15.9928 9.41841 15.7464C9.82612 15.5 10.155 15.147 10.368 14.7272L11.1368 13.2217H11.137C11.2811 12.9355 11.5786 12.7538 11.9048 12.7523H18.4301C18.2523 13.2444 17.9232 13.6703 17.4883 13.9724C17.0532 14.2744 16.5335 14.4374 16.0001 14.4393H15.3436C14.8643 14.4376 14.3943 14.5674 13.9868 14.8138C13.5791 15.0602 13.2499 15.4135 13.037 15.8333L10.4214 20.9531C10.3154 21.1593 10.3007 21.3988 10.3808 21.6159C10.4608 21.8328 10.6286 22.0082 10.8448 22.1004C11.8538 22.5313 12.993 22.5664 14.0279 22.199C15.0625 21.8313 15.9136 21.0894 16.405 20.1258L16.7332 19.4835H18.7253C18.9535 19.4828 19.1725 19.5716 19.333 19.7301L23.6285 23.934H23.6288C23.848 24.1434 23.934 24.4522 23.8537 24.7416L23.8542 24.7413ZM25.4528 23.6799V23.6801C25.3234 23.3278 25.1159 23.0082 24.8449 22.7443L20.5479 18.5404C20.0656 18.0661 19.4096 17.8002 18.7256 17.8022H16.2035C15.8778 17.8022 15.5801 17.9822 15.4342 18.2669L14.8682 19.3736V19.3738C14.6452 19.812 14.2969 20.1771 13.8652 20.4245C13.4336 20.6721 12.9376 20.7912 12.4379 20.7673L14.5745 16.5861C14.7188 16.2999 15.0173 16.1191 15.3437 16.1208H25.4529V23.6803L25.4528 23.6799ZM28.9491 24.5286H27.1732V16.1204H28.9491V24.5286ZM16.8591 3.50906V6.03164C16.8584 6.49541 16.4739 6.8709 15.9998 6.8709C15.5258 6.8709 15.1413 6.49545 15.1405 6.03164V3.50906C15.14 3.28583 15.2305 3.07163 15.3916 2.91354C15.5527 2.75546 15.7717 2.66666 15.9998 2.66666C16.228 2.66666 16.4467 2.75546 16.608 2.91354C16.7691 3.07163 16.8596 3.28583 16.8591 3.50906ZM11.4512 9.14723C11.2901 9.30507 11.0714 9.39387 10.8435 9.39387C10.6154 9.39387 10.3967 9.30507 10.2356 9.14723L8.51698 7.46634C8.18134 7.13797 8.18134 6.60516 8.51698 6.27677C8.85287 5.94816 9.39722 5.94816 9.73313 6.27677L11.4512 7.9596C11.6126 8.11696 11.7031 8.33067 11.7031 8.5534C11.7031 8.77638 11.6126 8.98988 11.4512 9.14723ZM23.4819 7.46634L21.7638 9.14723C21.4284 9.47584 20.8845 9.47633 20.5486 9.14845C20.2127 8.82032 20.2125 8.28827 20.5476 7.95963L22.2677 6.27681C22.6036 5.94941 23.1469 5.95039 23.4821 6.27852C23.817 6.60664 23.8167 7.13826 23.4818 7.46639L23.4819 7.46634Z" fill="#18FFFF"/>
</g>
<defs>
<clipPath id="clip0_645_23473">
<rect width="32" height="32" fill="white"/>
</clipPath>
</defs>
</svg>
