<svg width="24" height="24" viewBox="0 0 24 24" fill="none" xmlns="http://www.w3.org/2000/svg">
<path d="M7.00001 6C7.26522 6 8 6 8 6C8 6 8.00001 6.73478 8.00001 7V17C8.00001 17.2652 8 18 8 18C8 18 7.26522 18 7.00001 18C6.73479 18 6.00002 18 6.00002 18C6.00002 18 6.00001 17.2652 6.00001 17L6.00001 7C6.00001 6.73478 6 6 6 6C6 6 6.73479 6 7.00001 6ZM15 14.14V9.86L11.968 12L15 14.14ZM9.07901 12.408C9.01379 12.3618 8.9606 12.3006 8.9239 12.2297C8.88719 12.1587 8.86803 12.0799 8.86803 12C8.86803 11.9201 8.88719 11.8413 8.9239 11.7703C8.9606 11.6994 9.01379 11.6382 9.07901 11.592L16.212 6.556C16.2869 6.50323 16.3749 6.47205 16.4663 6.46587C16.5577 6.45968 16.649 6.47873 16.7303 6.52094C16.8117 6.56315 16.8798 6.62689 16.9274 6.7052C16.9749 6.78351 17.0001 6.87338 17 6.965V17.035C17.0001 17.1266 16.9749 17.2165 16.9274 17.2948C16.8798 17.3731 16.8117 17.4369 16.7303 17.4791C16.649 17.5213 16.5577 17.5403 16.4663 17.5341C16.3749 17.528 16.2869 17.4968 16.212 17.444L9.07901 12.408Z" fill="#18FFFF"/>
</svg>
