<svg width="24" height="24" viewBox="0 0 24 24" fill="none" xmlns="http://www.w3.org/2000/svg">
<path d="M17 6C16.7348 6 16 6 16 6C16 6 16 6.73478 16 7V17C16 17.2652 16 18 16 18C16 18 16.7348 18 17 18C17.2652 18 18 18 18 18C18 18 18 17.2652 18 17V7C18 6.73478 18 6 18 6C18 6 17.2652 6 17 6ZM8.99999 14.14V9.86L12.032 12L8.99999 14.14ZM14.921 12.408C14.9862 12.3618 15.0394 12.3006 15.0761 12.2297C15.1128 12.1587 15.132 12.0799 15.132 12C15.132 11.9201 15.1128 11.8413 15.0761 11.7703C15.0394 11.6994 14.9862 11.6382 14.921 11.592L7.78799 6.556C7.7131 6.50323 7.62515 6.47205 7.53374 6.46587C7.44232 6.45968 7.35097 6.47873 7.26966 6.52094C7.18834 6.56315 7.12018 6.62689 7.07262 6.7052C7.02507 6.78351 6.99994 6.87338 6.99999 6.965V17.035C6.99994 17.1266 7.02507 17.2165 7.07262 17.2948C7.12018 17.3731 7.18834 17.4369 7.26966 17.4791C7.35097 17.5213 7.44232 17.5403 7.53374 17.5341C7.62515 17.528 7.7131 17.4968 7.78799 17.444L14.921 12.408Z" fill="#18FFFF"/>
</svg>
