<svg width="33" height="38" viewBox="0 0 33 38" fill="none" xmlns="http://www.w3.org/2000/svg">
<path d="M30.2654 37.2889H2.66336C1.19243 37.2889 0 36.0965 0 34.6256V2.66531C0 1.19438 1.19243 0.00195312 2.66336 0.00195312H20.5805L32.9288 12.3502V34.6256C32.9288 36.0965 31.7363 37.2889 30.2654 37.2889Z" fill="#18FFFF"/>
<path opacity="0.12" fill-rule="evenodd" clip-rule="evenodd" d="M24.0917 16.8297H8.83789V15.377H24.0917V16.8297ZM24.0917 20.4648H8.83789V19.0121H24.0917V20.4648ZM8.83789 24.0946H24.0917V22.6418H8.83789V24.0946ZM24.0917 27.7261H8.83789V26.2734H24.0917V27.7261ZM8.83789 31.3595H24.0917V29.9067H8.83789V31.3595Z" fill="#052742"/>
<path d="M7.5319 26.6025C7.41075 26.6025 7.30874 26.5611 7.22585 26.4782C7.14297 26.3953 7.10152 26.2933 7.10152 26.1721V20.319C7.10152 20.1979 7.14297 20.0959 7.22585 20.013C7.30874 19.9237 7.41075 19.8791 7.5319 19.8791H9.71246C10.3182 19.8791 10.8123 19.9811 11.1949 20.1852C11.5774 20.3892 11.8516 20.6506 12.0174 20.9694C12.1831 21.2882 12.266 21.6325 12.266 22.0023C12.266 22.3721 12.1831 22.7164 12.0174 23.0352C11.8516 23.354 11.5774 23.6154 11.1949 23.8194C10.8123 24.0235 10.3182 24.1255 9.71246 24.1255H7.97183V26.1721C7.97183 26.2933 7.9272 26.3953 7.83794 26.4782C7.75505 26.5611 7.65304 26.6025 7.5319 26.6025ZM9.62638 23.303C10.2767 23.303 10.7326 23.1786 10.994 22.93C11.2618 22.6813 11.3957 22.3721 11.3957 22.0023C11.3957 21.6325 11.2618 21.3233 10.994 21.0746C10.7326 20.8259 10.2767 20.7016 9.62638 20.7016H7.97183V23.303H9.62638ZM14.6271 26.5547C14.5059 26.5547 14.4039 26.5132 14.321 26.4304C14.2382 26.3475 14.1967 26.2455 14.1967 26.1243V20.319C14.1967 20.1979 14.2382 20.0959 14.321 20.013C14.4039 19.9237 14.5059 19.8791 14.6271 19.8791H16.5494C17.2763 19.8791 17.8916 20.0417 18.3953 20.3669C18.9053 20.6857 19.2879 21.1001 19.5429 21.6102C19.798 22.1202 19.9255 22.6558 19.9255 23.2169C19.9255 23.778 19.798 24.3136 19.5429 24.8236C19.2879 25.3337 18.9053 25.7513 18.3953 26.0765C17.8916 26.3953 17.2763 26.5547 16.5494 26.5547H14.6271ZM16.4442 25.7418C16.967 25.7418 17.4261 25.6366 17.8214 25.4262C18.2167 25.2094 18.5228 24.9129 18.7396 24.5367C18.9563 24.1542 19.0647 23.7142 19.0647 23.2169C19.0647 22.7196 18.9563 22.2828 18.7396 21.9066C18.5228 21.5241 18.2167 21.2276 17.8214 21.0172C17.4261 20.8004 16.967 20.692 16.4442 20.692H15.067V25.7418H16.4442ZM22.4788 26.6025C22.3577 26.6025 22.2556 26.5611 22.1728 26.4782C22.0899 26.3953 22.0484 26.2933 22.0484 26.1721V20.319C22.0484 20.1979 22.0899 20.0959 22.1728 20.013C22.2556 19.9237 22.3577 19.8791 22.4788 19.8791H26.1991C26.3139 19.8791 26.4095 19.9206 26.4861 20.0034C26.5689 20.08 26.6104 20.1756 26.6104 20.2904C26.6104 20.4051 26.5689 20.5008 26.4861 20.5773C26.4095 20.6538 26.3139 20.692 26.1991 20.692H22.9187V22.8057H25.8644C25.9792 22.8057 26.0748 22.8471 26.1513 22.93C26.2342 23.0065 26.2757 23.1021 26.2757 23.2169C26.2757 23.3317 26.2342 23.4273 26.1513 23.5038C26.0748 23.5803 25.9792 23.6186 25.8644 23.6186H22.9187V26.1721C22.9187 26.2933 22.8741 26.3953 22.7848 26.4782C22.702 26.5611 22.5999 26.6025 22.4788 26.6025Z" fill="#052742"/>
<path d="M7.22585 26.4782L7.39706 26.307H7.39706L7.22585 26.4782ZM7.22585 20.013L7.39718 20.1843L7.40328 20.1778L7.22585 20.013ZM11.1949 20.1852L11.3088 19.9715L11.1949 20.1852ZM12.0174 20.9694L11.8025 21.0811V21.0811L12.0174 20.9694ZM12.0174 23.0352L11.8025 22.9235H11.8025L12.0174 23.0352ZM11.1949 23.8194L11.3088 24.0331L11.1949 23.8194ZM7.97183 24.1255V23.8833H7.72971V24.1255H7.97183ZM7.83794 26.4782L7.67307 26.3006L7.66673 26.307L7.83794 26.4782ZM10.994 22.93L10.8293 22.7525L10.8271 22.7545L10.994 22.93ZM10.994 21.0746L10.8271 21.25L10.8293 21.252L10.994 21.0746ZM7.97183 20.7016V20.4595H7.72971V20.7016H7.97183ZM7.97183 23.303H7.72971V23.5451H7.97183V23.303ZM7.5319 26.3604C7.47257 26.3604 7.43287 26.3428 7.39706 26.307L7.05465 26.6494C7.18461 26.7793 7.34894 26.8446 7.5319 26.8446V26.3604ZM7.39706 26.307C7.36125 26.2712 7.34365 26.2315 7.34365 26.1721H6.8594C6.8594 26.3551 6.92468 26.5194 7.05465 26.6494L7.39706 26.307ZM7.34365 26.1721V20.319H6.8594V26.1721H7.34365ZM7.34365 20.319C7.34365 20.2597 7.36125 20.22 7.39706 20.1842L7.05465 19.8418C6.92468 19.9718 6.8594 20.1361 6.8594 20.319H7.34365ZM7.40328 20.1778C7.44064 20.1375 7.4785 20.1212 7.5319 20.1212V19.637C7.34301 19.637 7.17684 19.71 7.04843 19.8483L7.40328 20.1778ZM7.5319 20.1212H9.71246V19.637H7.5319V20.1212ZM9.71246 20.1212C10.2933 20.1212 10.7446 20.2194 11.0809 20.3988L11.3088 19.9715C10.88 19.7428 10.343 19.637 9.71246 19.637V20.1212ZM11.0809 20.3988C11.4294 20.5846 11.6636 20.814 11.8025 21.0811L12.2322 20.8577C12.0395 20.4872 11.7254 20.1937 11.3088 19.9715L11.0809 20.3988ZM11.8025 21.0811C11.9498 21.3644 12.0239 21.6702 12.0239 22.0023H12.5081C12.5081 21.5948 12.4164 21.212 12.2322 20.8577L11.8025 21.0811ZM12.0239 22.0023C12.0239 22.3344 11.9498 22.6402 11.8025 22.9235L12.2322 23.1469C12.4164 22.7926 12.5081 22.4098 12.5081 22.0023H12.0239ZM11.8025 22.9235C11.6636 23.1906 11.4294 23.4199 11.0809 23.6058L11.3088 24.0331C11.7254 23.8109 12.0395 23.5174 12.2322 23.1469L11.8025 22.9235ZM11.0809 23.6058C10.7446 23.7852 10.2933 23.8833 9.71246 23.8833V24.3676C10.343 24.3676 10.88 24.2617 11.3088 24.0331L11.0809 23.6058ZM9.71246 23.8833H7.97183V24.3676H9.71246V23.8833ZM7.72971 24.1255V26.1721H8.21396V24.1255H7.72971ZM7.72971 26.1721C7.72971 26.2255 7.71342 26.2634 7.67319 26.3008L8.00269 26.6556C8.14098 26.5272 8.21396 26.361 8.21396 26.1721H7.72971ZM7.66673 26.307C7.63092 26.3428 7.59123 26.3604 7.5319 26.3604V26.8446C7.71485 26.8446 7.87918 26.7793 8.00915 26.6494L7.66673 26.307ZM9.62638 23.5451C10.2937 23.5451 10.8299 23.4202 11.1609 23.1054L10.8271 22.7545C10.6353 22.937 10.2598 23.0609 9.62638 23.0609V23.5451ZM11.1588 23.1074C11.4766 22.8123 11.6378 22.4385 11.6378 22.0023H11.1536C11.1536 22.3057 11.047 22.5503 10.8293 22.7526L11.1588 23.1074ZM11.6378 22.0023C11.6378 21.5661 11.4766 21.1923 11.1588 20.8972L10.8293 21.252C11.047 21.4542 11.1536 21.6989 11.1536 22.0023H11.6378ZM11.1609 20.8992C10.8299 20.5843 10.2937 20.4595 9.62638 20.4595V20.9437C10.2598 20.9437 10.6353 21.0675 10.8271 21.25L11.1609 20.8992ZM9.62638 20.4595H7.97183V20.9437H9.62638V20.4595ZM7.72971 20.7016V23.303H8.21396V20.7016H7.72971ZM7.97183 23.5451H9.62638V23.0609H7.97183V23.5451ZM14.321 26.4304L14.4923 26.2592L14.321 26.4304ZM14.321 20.013L14.4924 20.1843L14.4985 20.1778L14.321 20.013ZM18.3953 20.3669L18.2639 20.5703L18.2669 20.5722L18.3953 20.3669ZM19.5429 21.6102L19.3264 21.7184L19.5429 21.6102ZM19.5429 24.8236L19.3264 24.7153L19.5429 24.8236ZM18.3953 26.0765L18.5247 26.2811L18.5254 26.2807L18.3953 26.0765ZM17.8214 25.4262L17.9352 25.6399L17.9378 25.6384L17.8214 25.4262ZM18.7396 24.5367L18.9493 24.6576L18.9502 24.6561L18.7396 24.5367ZM18.7396 21.9066L18.5289 22.026L18.5298 22.0275L18.7396 21.9066ZM17.8214 21.0172L17.705 21.2295L17.7077 21.2309L17.8214 21.0172ZM15.067 20.692V20.4499H14.8249V20.692H15.067ZM15.067 25.7418H14.8249V25.9839H15.067V25.7418ZM14.6271 26.3126C14.5678 26.3126 14.5281 26.295 14.4923 26.2592L14.1498 26.6016C14.2798 26.7315 14.4441 26.7968 14.6271 26.7968V26.3126ZM14.4923 26.2592C14.4564 26.2233 14.4388 26.1836 14.4388 26.1243H13.9546C13.9546 26.3073 14.0199 26.4716 14.1498 26.6016L14.4923 26.2592ZM14.4388 26.1243V20.319H13.9546V26.1243H14.4388ZM14.4388 20.319C14.4388 20.2597 14.4564 20.22 14.4923 20.1842L14.1498 19.8418C14.0199 19.9718 13.9546 20.1361 13.9546 20.319H14.4388ZM14.4985 20.1778C14.5358 20.1375 14.5737 20.1212 14.6271 20.1212V19.637C14.4382 19.637 14.272 19.71 14.1436 19.8483L14.4985 20.1778ZM14.6271 20.1212H16.5494V19.637H14.6271V20.1212ZM16.5494 20.1212C17.2397 20.1212 17.807 20.2753 18.2639 20.5703L18.5266 20.1634C17.9761 19.8081 17.3129 19.637 16.5494 19.637V20.1212ZM18.2669 20.5722C18.7414 20.8687 19.0924 21.2504 19.3264 21.7184L19.7595 21.5019C19.4834 20.9497 19.0693 20.5026 18.5236 20.1615L18.2669 20.5722ZM19.3264 21.7184C19.5649 22.1955 19.6833 22.694 19.6833 23.2169H20.1676C20.1676 22.6176 20.031 22.045 19.7595 21.5019L19.3264 21.7184ZM19.6833 23.2169C19.6833 23.7398 19.5649 24.2383 19.3264 24.7153L19.7595 24.9319C20.031 24.3888 20.1676 23.8162 20.1676 23.2169H19.6833ZM19.3264 24.7153C19.0921 25.1838 18.7406 25.5692 18.2651 25.8723L18.5254 26.2807C19.0701 25.9334 19.4836 25.4836 19.7595 24.9319L19.3264 24.7153ZM18.2658 25.8719C17.8085 26.1613 17.2405 26.3126 16.5494 26.3126V26.7968C17.312 26.7968 17.9746 26.6293 18.5247 26.2811L18.2658 25.8719ZM16.5494 26.3126H14.6271V26.7968H16.5494V26.3126ZM16.4442 25.9839C17.0001 25.9839 17.4994 25.8718 17.9352 25.6399L17.7077 25.2124C17.3528 25.4013 16.934 25.4996 16.4442 25.4996V25.9839ZM17.9378 25.6384C18.3705 25.4012 18.7095 25.0737 18.9493 24.6576L18.5298 24.4158C18.336 24.752 18.063 25.0176 17.705 25.2139L17.9378 25.6384ZM18.9502 24.6561C19.1902 24.2326 19.3068 23.7505 19.3068 23.2169H18.8226C18.8226 23.678 18.7225 24.0758 18.5289 24.4173L18.9502 24.6561ZM19.3068 23.2169C19.3068 22.6834 19.1902 22.2038 18.9493 21.7858L18.5298 22.0275C18.7224 22.3619 18.8226 22.7557 18.8226 23.2169H19.3068ZM18.9502 21.7873C18.7103 21.3639 18.3703 21.0351 17.9352 20.8035L17.7077 21.2309C18.0632 21.4202 18.3352 21.6843 18.5289 22.026L18.9502 21.7873ZM17.9378 20.8049C17.5015 20.5656 17.0012 20.4499 16.4442 20.4499V20.9342C16.9329 20.9342 17.3507 21.0352 17.705 21.2295L17.9378 20.8049ZM16.4442 20.4499H15.067V20.9342H16.4442V20.4499ZM14.8249 20.692V25.7418H15.3092V20.692H14.8249ZM15.067 25.9839H16.4442V25.4996H15.067V25.9839ZM22.1728 26.4782L22.344 26.307L22.1728 26.4782ZM22.1728 20.013L22.3441 20.1843L22.3502 20.1778L22.1728 20.013ZM26.4861 20.0034L26.3081 20.1677L26.3147 20.1748L26.3218 20.1814L26.4861 20.0034ZM26.4861 20.5773L26.3217 20.3992L26.3149 20.4061L26.4861 20.5773ZM22.9187 20.692V20.4499H22.6766V20.692H22.9187ZM22.9187 22.8057H22.6766V23.0478H22.9187V22.8057ZM26.1513 22.93L25.9734 23.0942L25.98 23.1013L25.9871 23.1079L26.1513 22.93ZM26.1513 23.5038L25.987 23.3258L25.9801 23.3326L26.1513 23.5038ZM22.9187 23.6186V23.3765H22.6766V23.6186H22.9187ZM22.7848 26.4782L22.62 26.3006L22.6136 26.307L22.7848 26.4782ZM22.4788 26.3604C22.4195 26.3604 22.3798 26.3428 22.344 26.307L22.0015 26.6494C22.1315 26.7793 22.2958 26.8446 22.4788 26.8446V26.3604ZM22.344 26.307C22.3082 26.2712 22.2905 26.2315 22.2905 26.1721H21.8063C21.8063 26.3551 21.8716 26.5194 22.0015 26.6494L22.344 26.307ZM22.2905 26.1721V20.319H21.8063V26.1721H22.2905ZM22.2905 20.319C22.2905 20.2597 22.3082 20.22 22.344 20.1842L22.0015 19.8418C21.8716 19.9718 21.8063 20.1361 21.8063 20.319H22.2905ZM22.3502 20.1778C22.3875 20.1375 22.4254 20.1212 22.4788 20.1212V19.637C22.2899 19.637 22.1237 19.71 21.9953 19.8483L22.3502 20.1778ZM22.4788 20.1212H26.1991V19.637H22.4788V20.1212ZM26.1991 20.1212C26.2477 20.1212 26.2784 20.1354 26.3081 20.1677L26.664 19.8392C26.5407 19.7057 26.3801 19.637 26.1991 19.637V20.1212ZM26.3218 20.1814C26.3541 20.2111 26.3683 20.2418 26.3683 20.2904H26.8525C26.8525 20.1094 26.7838 19.9488 26.6503 19.8255L26.3218 20.1814ZM26.3683 20.2904C26.3683 20.3389 26.3541 20.3696 26.3218 20.3994L26.6503 20.7552C26.7838 20.6319 26.8525 20.4714 26.8525 20.2904H26.3683ZM26.3149 20.4061C26.2867 20.4342 26.254 20.4499 26.1991 20.4499V20.9342C26.3738 20.9342 26.5324 20.8734 26.6573 20.7485L26.3149 20.4061ZM26.1991 20.4499H22.9187V20.9342H26.1991V20.4499ZM22.6766 20.692V22.8057H23.1609V20.692H22.6766ZM22.9187 23.0478H25.8644V22.5635H22.9187V23.0478ZM25.8644 23.0478C25.9129 23.0478 25.9436 23.062 25.9734 23.0942L26.3292 22.7658C26.206 22.6322 26.0454 22.5635 25.8644 22.5635V23.0478ZM25.9871 23.1079C26.0194 23.1377 26.0335 23.1684 26.0335 23.2169H26.5178C26.5178 23.0359 26.4491 22.8753 26.3156 22.7521L25.9871 23.1079ZM26.0335 23.2169C26.0335 23.2654 26.0194 23.2961 25.9871 23.3259L26.3156 23.6817C26.4491 23.5585 26.5178 23.3979 26.5178 23.2169H26.0335ZM25.9801 23.3326C25.952 23.3607 25.9193 23.3765 25.8644 23.3765V23.8607C26.0391 23.8607 26.1976 23.7999 26.3225 23.675L25.9801 23.3326ZM25.8644 23.3765H22.9187V23.8607H25.8644V23.3765ZM22.6766 23.6186V26.1721H23.1609V23.6186H22.6766ZM22.6766 26.1721C22.6766 26.2255 22.6603 26.2634 22.6201 26.3008L22.9496 26.6556C23.0879 26.5272 23.1609 26.361 23.1609 26.1721H22.6766ZM22.6136 26.307C22.5778 26.3428 22.5381 26.3604 22.4788 26.3604V26.8446C22.6618 26.8446 22.8261 26.7793 22.9561 26.6494L22.6136 26.307Z" fill="#052742"/>
<mask id="mask0_2298_64954" style="mask-type:alpha" maskUnits="userSpaceOnUse" x="0" y="0" width="33" height="38">
<path d="M30.2654 37.2889H2.66336C1.19243 37.2889 0 36.0965 0 34.6256V2.66531C0 1.19438 1.19242 0.00195312 2.66335 0.00195312H20.5805L32.9288 12.3502V34.6256C32.9288 36.0965 31.7363 37.2889 30.2654 37.2889Z" fill="url(#paint0_linear_2298_64954)"/>
</mask>
<g mask="url(#mask0_2298_64954)">
<ellipse opacity="0.08" cx="-3.32921" cy="-0.784243" rx="27.0573" ry="25.9677" fill="url(#paint1_linear_2298_64954)"/>
<ellipse opacity="0.08" cx="-3.32923" cy="-0.785574" rx="17.0092" ry="16.2828" fill="url(#paint2_linear_2298_64954)"/>
</g>
<g filter="url(#filter0_d_2298_64954)">
<path d="M32.9288 12.3502H23.2439C21.773 12.3502 20.5806 11.1578 20.5806 9.68688V0.00195312L32.9288 12.3502Z" fill="#76FFFF"/>
</g>
<defs>
<filter id="filter0_d_2298_64954" x="17.7961" y="-2.90353" width="18.4015" height="18.4007" filterUnits="userSpaceOnUse" color-interpolation-filters="sRGB">
<feFlood flood-opacity="0" result="BackgroundImageFix"/>
<feColorMatrix in="SourceAlpha" type="matrix" values="0 0 0 0 0 0 0 0 0 0 0 0 0 0 0 0 0 0 127 0" result="hardAlpha"/>
<feOffset dx="0.242123" dy="0.121062"/>
<feGaussianBlur stdDeviation="1.51327"/>
<feColorMatrix type="matrix" values="0 0 0 0 0 0 0 0 0 0 0 0 0 0 0 0 0 0 0.33 0"/>
<feBlend mode="normal" in2="BackgroundImageFix" result="effect1_dropShadow_2298_64954"/>
<feBlend mode="normal" in="SourceGraphic" in2="effect1_dropShadow_2298_64954" result="shape"/>
</filter>
<linearGradient id="paint0_linear_2298_64954" x1="16.4644" y1="0.00195313" x2="16.4644" y2="37.2889" gradientUnits="userSpaceOnUse">
<stop stop-color="#FF7981"/>
<stop offset="1" stop-color="#E85567"/>
</linearGradient>
<linearGradient id="paint1_linear_2298_64954" x1="-1.36465" y1="0.108118" x2="6.8408" y2="21.8855" gradientUnits="userSpaceOnUse">
<stop stop-color="white" stop-opacity="0"/>
<stop offset="1" stop-color="white"/>
</linearGradient>
<linearGradient id="paint2_linear_2298_64954" x1="-2.09424" y1="-0.226028" x2="3.04108" y2="13.4379" gradientUnits="userSpaceOnUse">
<stop stop-color="white" stop-opacity="0"/>
<stop offset="1" stop-color="white"/>
</linearGradient>
</defs>
</svg>
