<svg width="32" height="32" viewBox="0 0 32 32" fill="none" xmlns="http://www.w3.org/2000/svg">
<g clip-path="url(#clip0_645_23461)">
<path d="M16.0001 2.66666C18.1218 2.66666 20.1566 3.50951 21.6569 5.0098C23.1572 6.51009 24.0001 8.54492 24.0001 10.6667V12H29.3334V14.6667H27.7774L26.7681 26.7773C26.7403 27.1105 26.5884 27.4211 26.3425 27.6476C26.0965 27.874 25.7744 27.9998 25.4401 28H6.56008C6.22574 27.9998 5.90368 27.874 5.65771 27.6476C5.41174 27.4211 5.25983 27.1105 5.23208 26.7773L4.22141 14.6667H2.66675V12H8.00008V10.6667C8.00008 8.54492 8.84294 6.51009 10.3432 5.0098C11.8435 3.50951 13.8784 2.66666 16.0001 2.66666ZM25.1014 14.6667H6.89741L7.78675 25.3333H24.2121L25.1014 14.6667ZM17.3334 17.3333V22.6667H14.6667V17.3333H17.3334ZM12.0001 17.3333V22.6667H9.33342V17.3333H12.0001ZM22.6667 17.3333V22.6667H20.0001V17.3333H22.6667ZM16.0001 5.33332C14.6318 5.33332 13.3158 5.85924 12.3243 6.80229C11.3329 7.74534 10.7418 9.03338 10.6734 10.4L10.6667 10.6667V12H21.3334V10.6667C21.3334 9.29833 20.8075 7.98235 19.8645 6.99091C18.9214 5.99946 17.6334 5.40841 16.2667 5.33999L16.0001 5.33332Z" fill="#18FFFF"/>
</g>
<defs>
<clipPath id="clip0_645_23461">
<rect width="32" height="32" fill="white"/>
</clipPath>
</defs>
</svg>
