<svg width="24" height="25" viewBox="0 0 24 25" fill="none" xmlns="http://www.w3.org/2000/svg">
<mask id="path-1-inside-1_827_13855" fill="white">
<path fill-rule="evenodd" clip-rule="evenodd" d="M16.9011 24.9594L24 17.8605V0.959351H6.96L0 7.91935V24.9594H16.9011ZM5.31035 12.6571L9.54169 16.8885L20.2208 6.20935L21.6312 7.6198L9.54169 19.7094L3.8999 14.0676L5.31035 12.6571Z"/>
</mask>
<path fill-rule="evenodd" clip-rule="evenodd" d="M16.9011 24.9594L24 17.8605V0.959351H6.96L0 7.91935V24.9594H16.9011ZM5.31035 12.6571L9.54169 16.8885L20.2208 6.20935L21.6312 7.6198L9.54169 19.7094L3.8999 14.0676L5.31035 12.6571Z" fill="#18FFFF"/>
<path d="M24 17.8605L25.1314 18.9918L25.6 18.5232V17.8605H24ZM16.9011 24.9594V26.5594H17.5639L18.0325 26.0907L16.9011 24.9594ZM24 0.959351H25.6V-0.640649H24V0.959351ZM6.96 0.959351V-0.640649H6.29726L5.82863 -0.17202L6.96 0.959351ZM0 7.91935L-1.13137 6.78798L-1.6 7.25661V7.91935H0ZM0 24.9594H-1.6V26.5594H0V24.9594ZM9.54169 16.8885L8.41032 18.0198L9.54169 19.1512L10.6731 18.0198L9.54169 16.8885ZM5.31035 12.6571L6.44172 11.5257L5.31035 10.3944L4.17898 11.5257L5.31035 12.6571ZM20.2208 6.20935L21.3522 5.07798L20.2208 3.94661L19.0894 5.07798L20.2208 6.20935ZM21.6312 7.6198L22.7626 8.75117L23.894 7.6198L22.7626 6.48843L21.6312 7.6198ZM9.54169 19.7094L8.41032 20.8407L9.54169 21.9721L10.6731 20.8407L9.54169 19.7094ZM3.8999 14.0676L2.76853 12.9362L1.63716 14.0676L2.76853 15.1989L3.8999 14.0676ZM22.8686 16.7291L15.7698 23.828L18.0325 26.0907L25.1314 18.9918L22.8686 16.7291ZM22.4 0.959351V17.8605H25.6V0.959351H22.4ZM6.96 2.55935H24V-0.640649H6.96V2.55935ZM1.13137 9.05072L8.09137 2.09072L5.82863 -0.17202L-1.13137 6.78798L1.13137 9.05072ZM1.6 24.9594V7.91935H-1.6V24.9594H1.6ZM16.9011 23.3594H0V26.5594H16.9011V23.3594ZM10.6731 15.7571L6.44172 11.5257L4.17898 13.7885L8.41032 18.0198L10.6731 15.7571ZM19.0894 5.07798L8.41032 15.7571L10.6731 18.0198L21.3522 7.34072L19.0894 5.07798ZM22.7626 6.48843L21.3522 5.07798L19.0894 7.34072L20.4999 8.75117L22.7626 6.48843ZM10.6731 20.8407L22.7626 8.75117L20.4999 6.48843L8.41032 18.578L10.6731 20.8407ZM2.76853 15.1989L8.41032 20.8407L10.6731 18.578L5.03127 12.9362L2.76853 15.1989ZM4.17898 11.5257L2.76853 12.9362L5.03127 15.1989L6.44172 13.7885L4.17898 11.5257Z" fill="#18FFFF" mask="url(#path-1-inside-1_827_13855)"/>
</svg>
