<svg width="24" height="24" viewBox="0 0 24 24" fill="none" xmlns="http://www.w3.org/2000/svg">
<mask id="path-1-inside-1_827_22690" fill="white">
<path fill-rule="evenodd" clip-rule="evenodd" d="M24 16.901L16.901 24H0V6.95992L6.95992 0H24V16.901Z"/>
</mask>
<path d="M24 16.901L25.4142 18.3153L26 17.7295V16.901H24ZM16.901 24V26H17.7295L18.3153 25.4142L16.901 24ZM0 24H-2V26H0V24ZM0 6.95992L-1.41421 5.54571L-2 6.13149V6.95992H0ZM6.95992 0V-2H6.13149L5.54571 -1.41421L6.95992 0ZM24 0H26V-2H24V0ZM22.5858 15.4868L15.4868 22.5858L18.3153 25.4142L25.4142 18.3153L22.5858 15.4868ZM16.901 22H0V26H16.901V22ZM2 24V6.95992H-2V24H2ZM1.41421 8.37413L8.37413 1.41421L5.54571 -1.41421L-1.41421 5.54571L1.41421 8.37413ZM6.95992 2H24V-2H6.95992V2ZM22 0V16.901H26V0H22Z" fill="#18FFFF" mask="url(#path-1-inside-1_827_22690)"/>
</svg>
