<svg width="32" height="32" viewBox="0 0 32 32" fill="none" xmlns="http://www.w3.org/2000/svg">
<g clip-path="url(#clip0_645_23513)">
<path d="M29.3391 22.9754V21.7719C29.3391 19.9007 27.8079 18.3776 25.9246 18.3776C24.3257 18.3776 22.9842 19.478 22.6152 20.955C21.3314 19.7915 19.8141 18.8809 18.1384 18.3114C20.666 16.863 22.3724 14.1503 22.3724 11.0473C22.3724 6.42645 18.5905 2.66667 13.942 2.66667C9.29372 2.66667 5.51161 6.42622 5.51161 11.0473C5.51161 14.1746 7.24484 16.9056 9.80547 18.3454C4.80546 20.0879 1.2063 24.8389 1.2063 30.4149H3.01269C3.01269 24.3564 7.94922 19.4275 14.0173 19.4275C17.272 19.4275 20.1968 20.848 22.2131 23.098C21.6769 23.3809 21.3104 23.9413 21.3104 24.5859V28.9825C21.3104 29.9114 22.0707 30.6667 23.0052 30.6667H28.8451C29.7796 30.6667 30.5393 29.9115 30.5393 28.9825L30.5396 24.5859C30.5393 23.8286 30.0331 23.1858 29.3393 22.9747L29.3391 22.9754ZM7.31816 11.0475C7.31816 7.4166 10.2895 4.46278 13.9419 4.46278C17.594 4.46278 20.5654 7.4166 20.5654 11.0475C20.5654 14.6783 17.594 17.6321 13.9419 17.6321C10.2898 17.6327 7.31816 14.6786 7.31816 11.0475ZM25.924 20.1739C26.8107 20.1739 27.5317 20.8906 27.5317 21.7721V22.9026H24.3687C24.3515 22.8791 24.3342 22.8566 24.317 22.8337V21.7722C24.317 20.8904 25.038 20.1739 25.9241 20.1739L25.924 20.1739ZM28.7321 28.8716H23.1163V24.6984H28.7321V28.8716Z" fill="#18FFFF"/>
</g>
<defs>
<clipPath id="clip0_645_23513">
<rect width="32" height="32" fill="white"/>
</clipPath>
</defs>
</svg>
