<svg width="25" height="24" viewBox="0 0 25 24" fill="none" xmlns="http://www.w3.org/2000/svg">
<mask id="path-1-inside-1_1414_6979" fill="white">
<path fill-rule="evenodd" clip-rule="evenodd" d="M24.5 16.9011L17.4011 24H0.5V6.96L7.46 0H24.5V16.9011Z"/>
</mask>
<path fill-rule="evenodd" clip-rule="evenodd" d="M24.5 16.9011L17.4011 24H0.5V6.96L7.46 0H24.5V16.9011Z"/>
<path d="M24.5 16.9011L25.6314 18.0325L26.1 17.5639V16.9011H24.5ZM17.4011 24V25.6H18.0639L18.5325 25.1314L17.4011 24ZM0.5 24H-1.1V25.6H0.5V24ZM0.5 6.96L-0.631371 5.82863L-1.1 6.29726V6.96H0.5ZM7.46 0V-1.6H6.79726L6.32863 -1.13137L7.46 0ZM24.5 0H26.1V-1.6H24.5V0ZM23.3686 15.7698L16.2698 22.8686L18.5325 25.1314L25.6314 18.0325L23.3686 15.7698ZM17.4011 22.4H0.5V25.6H17.4011V22.4ZM2.1 24V6.96H-1.1V24H2.1ZM1.63137 8.09137L8.59137 1.13137L6.32863 -1.13137L-0.631371 5.82863L1.63137 8.09137ZM7.46 1.6H24.5V-1.6H7.46V1.6ZM22.9 0V16.9011H26.1V0H22.9Z" mask="url(#path-1-inside-1_1414_6979)"/>
</svg>
