<svg width="32" height="32" viewBox="0 0 32 32" fill="none" xmlns="http://www.w3.org/2000/svg">
<path d="M20.8506 15.9613C20.1984 16.5527 19.4315 17.0263 18.5859 17.3471L24.2962 20.1212V27.0303H7.70362V20.1212L13.414 17.3471C12.5684 17.0263 11.8015 16.5527 11.1492 15.9613L5.33325 19.2576V29.3333H26.6666V19.2576L20.8506 15.9613Z" fill="#18FFFF"/>
<path fill-rule="evenodd" clip-rule="evenodd" d="M15.9999 17.8182C19.9273 17.8182 23.111 14.7249 23.111 10.9091C23.111 7.09331 19.9273 4 15.9999 4C12.0726 4 8.88881 7.09331 8.88881 10.9091C8.88881 14.7249 12.0726 17.8182 15.9999 17.8182ZM15.9999 15.5152C18.6182 15.5152 20.7407 13.453 20.7407 10.9091C20.7407 8.36524 18.6182 6.30303 15.9999 6.30303C13.3817 6.30303 11.2592 8.36524 11.2592 10.9091C11.2592 13.453 13.3817 15.5152 15.9999 15.5152Z" fill="#18FFFF"/>
</svg>
