<svg width="24" height="24" viewBox="0 0 24 24" fill="none" xmlns="http://www.w3.org/2000/svg">
<path d="M12.7938 3.75004L21.526 18.875C21.6065 19.0144 21.6488 19.1725 21.6488 19.3334C21.6488 19.4943 21.6065 19.6523 21.526 19.7917C21.4456 19.931 21.3298 20.0468 21.1905 20.1272C21.0511 20.2077 20.8931 20.25 20.7322 20.25H3.26784C3.10693 20.25 2.94886 20.2077 2.80951 20.1272C2.67017 20.0468 2.55445 19.931 2.474 19.7917C2.39355 19.6523 2.3512 19.4943 2.3512 19.3334C2.3512 19.1725 2.39355 19.0144 2.47401 18.875L11.2062 3.75004C11.2866 3.6107 11.4023 3.49499 11.5417 3.41455C11.681 3.3341 11.8391 3.29175 12 3.29175C12.1609 3.29175 12.319 3.3341 12.4583 3.41455C12.5977 3.49499 12.7134 3.6107 12.7938 3.75004ZM4.85551 18.4167H19.1445L12 6.04171L4.85551 18.4167ZM11.0833 15.6667H12.9167V17.5H11.0833V15.6667ZM11.0833 9.25004H12.9167V13.8334H11.0833V9.25004Z" fill="#FF6C75"/>
</svg>
