<svg width="24" height="24" viewBox="0 0 24 24" fill="none" xmlns="http://www.w3.org/2000/svg">
<path d="M12.7937 3.74998L21.5259 18.875C21.6063 19.0143 21.6487 19.1724 21.6487 19.3333C21.6487 19.4942 21.6063 19.6523 21.5259 19.7916C21.4454 19.931 21.3297 20.0467 21.1904 20.1272C21.051 20.2076 20.893 20.25 20.732 20.25H3.26772C3.10681 20.25 2.94874 20.2076 2.80939 20.1272C2.67004 20.0467 2.55433 19.931 2.47388 19.7916C2.39343 19.6523 2.35107 19.4942 2.35107 19.3333C2.35108 19.1724 2.39343 19.0143 2.47388 18.875L11.206 3.74998C11.2865 3.61064 11.4022 3.49493 11.5416 3.41449C11.6809 3.33404 11.839 3.29169 11.9999 3.29169C12.1608 3.29169 12.3189 3.33404 12.4582 3.41449C12.5975 3.49493 12.7133 3.61064 12.7937 3.74998ZM4.85538 18.4166H19.1444L11.9999 6.04165L4.85538 18.4166ZM11.0832 15.6666H12.9166V17.5H11.0832V15.6666ZM11.0832 9.24998H12.9166V13.8333H11.0832V9.24998Z" fill="#FFB74D"/>
</svg>
