<svg width="33" height="38" viewBox="0 0 33 38" fill="none" xmlns="http://www.w3.org/2000/svg">
<path d="M30.2656 37.2889H2.6636C1.19267 37.2889 0.000244141 36.0965 0.000244141 34.6256V2.66531C0.000244141 1.19438 1.19267 0.00195312 2.6636 0.00195312H20.5807L32.929 12.3502V34.6256C32.929 36.0965 31.7366 37.2889 30.2656 37.2889Z" fill="#18FFFF"/>
<g opacity="0.82" filter="url(#filter0_f_2298_64970)">
<rect x="5.81128" y="18.041" width="21.549" height="10.1692" fill="#0F7D56" fill-opacity="0.27" style="mix-blend-mode:darken"/>
</g>
<path opacity="0.12" fill-rule="evenodd" clip-rule="evenodd" d="M11.8649 13.9242V13.9238H13.3176V13.9242H19.4924V13.9238H20.9452V13.9242H27.6029C28.1378 13.9242 28.5714 14.3578 28.5714 14.8927V31.8413C28.5714 32.3762 28.1378 32.8098 27.6029 32.8098H5.20653C4.67165 32.8098 4.23804 32.3762 4.23804 31.8413V14.8927C4.23804 14.3578 4.67165 13.9242 5.20653 13.9242H11.8649ZM11.8649 15.3769H5.69078V19.7342L11.8649 19.7342L11.8649 15.3769ZM5.69078 21.1869V25.5451L11.8649 25.5451V21.1869L5.69078 21.1869ZM5.69078 26.9978V31.3571H11.8649V26.9978L5.69078 26.9978ZM13.3176 31.3571H19.4924V26.9978H13.3176V31.3571ZM20.9452 31.3571H27.1187V26.9978L20.9452 26.9978V31.3571ZM27.1187 25.5451V21.1869L20.9452 21.1869V25.5451L27.1187 25.5451ZM27.1187 19.7342V15.3769H20.9452V19.7342L27.1187 19.7342ZM19.4924 15.3769H13.3176V19.7342L19.4924 19.7342V15.3769ZM19.4924 21.1869V25.5451H13.3176V21.1869L19.4924 21.1869Z" fill="#052742"/>
<path d="M7.72386 26.6025C7.61547 26.6025 7.51983 26.5643 7.43694 26.4877C7.36043 26.4049 7.32218 26.3092 7.32218 26.2008C7.32218 26.0988 7.35087 26.0095 7.40825 25.933L9.61751 23.2169L7.42738 20.5199C7.37 20.4434 7.34131 20.3541 7.34131 20.2521C7.34131 20.131 7.37956 20.0321 7.45607 19.9556C7.53896 19.8727 7.64097 19.8313 7.76212 19.8313C7.83225 19.8313 7.8992 19.8472 7.96296 19.8791C8.02672 19.911 8.07772 19.9524 8.11598 20.0034L10.134 22.5666L12.1519 19.9843C12.2221 19.8823 12.3273 19.8313 12.4675 19.8313C12.5823 19.8313 12.6811 19.8727 12.764 19.9556C12.8469 20.0321 12.8883 20.1278 12.8883 20.2425C12.8883 20.3318 12.8628 20.4115 12.8118 20.4816L10.6026 23.2073L12.8118 25.9235C12.8692 25.9872 12.8979 26.0701 12.8979 26.1721C12.8979 26.2933 12.8565 26.3953 12.7736 26.4782C12.6971 26.5611 12.5951 26.6025 12.4675 26.6025C12.3273 26.6025 12.2125 26.5419 12.1232 26.4208L10.0766 23.8481L8.05859 26.4304C7.96296 26.5451 7.85138 26.6025 7.72386 26.6025ZM15.5174 26.5547C15.3517 26.5547 15.2082 26.4973 15.0871 26.3825C14.9723 26.2614 14.9149 26.1179 14.9149 25.9522V20.2712C14.9149 20.1501 14.9564 20.0481 15.0392 19.9652C15.1221 19.8759 15.2241 19.8313 15.3453 19.8313C15.4664 19.8313 15.5684 19.8759 15.6513 19.9652C15.7406 20.0481 15.7852 20.1501 15.7852 20.2712V25.6844H18.9126C19.0338 25.6844 19.1358 25.729 19.2187 25.8183C19.3079 25.9012 19.3525 26.0032 19.3525 26.1243C19.3525 26.2455 19.3079 26.3475 19.2187 26.4304C19.1358 26.5132 19.0338 26.5547 18.9126 26.5547H15.5174ZM23.1989 26.6503C22.3891 26.6503 21.6304 26.4973 20.9227 26.1913C20.8462 26.1594 20.7824 26.1084 20.7314 26.0382C20.6804 25.9617 20.6549 25.882 20.6549 25.7991C20.6549 25.6908 20.6899 25.5983 20.7601 25.5218C20.8366 25.4389 20.9322 25.3975 21.047 25.3975C21.1108 25.3975 21.1713 25.4102 21.2287 25.4357C21.8153 25.6971 22.4433 25.8278 23.1128 25.8278C24.2286 25.8278 24.7865 25.4612 24.7865 24.728C24.7865 24.5367 24.7131 24.3773 24.5665 24.2498C24.4262 24.1223 24.2509 24.0235 24.0405 23.9533C23.8301 23.8768 23.5304 23.7875 23.1415 23.6855C22.625 23.5516 22.2074 23.4241 21.8886 23.303C21.5698 23.1755 21.2957 22.9874 21.0661 22.7387C20.8366 22.49 20.7218 22.1585 20.7218 21.7441C20.7218 21.3806 20.8175 21.0523 21.0087 20.759C21.2 20.4593 21.4806 20.2234 21.8504 20.0513C22.2265 19.8727 22.676 19.7835 23.1989 19.7835C23.9002 19.7835 24.5346 19.8887 25.1021 20.0991C25.2806 20.1628 25.3699 20.2904 25.3699 20.4816C25.3699 20.5836 25.3348 20.6761 25.2647 20.759C25.1945 20.8419 25.1021 20.8833 24.9873 20.8833C24.9491 20.8833 24.898 20.8706 24.8343 20.8451C24.337 20.6729 23.8237 20.5868 23.2945 20.5868C22.7908 20.5868 22.3796 20.6825 22.0608 20.8738C21.7483 21.065 21.5921 21.3328 21.5921 21.6771C21.5921 21.9066 21.6655 22.0947 21.8121 22.2414C21.9651 22.3817 22.1532 22.4932 22.3764 22.5761C22.6059 22.6526 22.9151 22.7355 23.3041 22.8248C23.8078 22.9459 24.2126 23.0671 24.5187 23.1882C24.8311 23.3093 25.0957 23.4974 25.3125 23.7525C25.5356 24.0075 25.6472 24.3518 25.6472 24.7854C25.6472 25.1424 25.5452 25.4644 25.3412 25.7513C25.1371 26.0319 24.8502 26.2518 24.4804 26.4112C24.1106 26.5706 23.6834 26.6503 23.1989 26.6503Z" fill="#052742"/>
<path d="M7.43694 26.4877L7.25903 26.652L7.2656 26.6591L7.27272 26.6657L7.43694 26.4877ZM7.40825 25.933L7.22027 25.7801L7.21455 25.7878L7.40825 25.933ZM9.61751 23.2169L9.80534 23.3697L9.92951 23.217L9.80546 23.0643L9.61751 23.2169ZM7.42738 20.5199L7.23354 20.6653L7.23942 20.6725L7.42738 20.5199ZM7.45607 19.9556L7.28486 19.7844L7.28486 19.7844L7.45607 19.9556ZM7.96296 19.8791L8.07124 19.6625H8.07124L7.96296 19.8791ZM8.11598 20.0034L7.92223 20.1488L7.92574 20.1532L8.11598 20.0034ZM10.134 22.5666L9.94372 22.7163L10.1347 22.9589L10.3247 22.7156L10.134 22.5666ZM12.1519 19.9843L12.3427 20.1334L12.3473 20.1276L12.3514 20.1215L12.1519 19.9843ZM12.764 19.9556L12.5927 20.127L12.5998 20.1335L12.764 19.9556ZM12.8118 20.4816L13.0002 20.6343L13.0076 20.624L12.8118 20.4816ZM10.6026 23.2073L10.4145 23.0549L10.2907 23.2076L10.4147 23.3601L10.6026 23.2073ZM12.8118 25.9235L12.6238 26.0764L12.6319 26.0854L12.8118 25.9235ZM12.7736 26.4782L12.6022 26.3068L12.5957 26.3139L12.7736 26.4782ZM12.1232 26.4208L12.3183 26.2771L12.3127 26.2701L12.1232 26.4208ZM10.0766 23.8481L10.266 23.6974L10.0749 23.4571L9.88579 23.699L10.0766 23.8481ZM8.05859 26.4304L8.24469 26.5854L8.24937 26.5794L8.05859 26.4304ZM7.72386 26.3604C7.67901 26.3604 7.64134 26.3469 7.60117 26.3098L7.27272 26.6657C7.39832 26.7816 7.55193 26.8446 7.72386 26.8446V26.3604ZM7.61486 26.3235C7.57778 26.2833 7.5643 26.2457 7.5643 26.2008H7.08005C7.08005 26.3728 7.14309 26.5264 7.25903 26.652L7.61486 26.3235ZM7.5643 26.2008C7.5643 26.1475 7.57816 26.11 7.60195 26.0783L7.21455 25.7878C7.12358 25.9091 7.08005 26.0501 7.08005 26.2008H7.5643ZM7.59609 26.0858L9.80534 23.3697L9.42967 23.0641L7.22042 25.7803L7.59609 26.0858ZM9.80546 23.0643L7.61534 20.3673L7.23942 20.6725L9.42955 23.3695L9.80546 23.0643ZM7.62108 20.3746C7.59729 20.3429 7.58343 20.3054 7.58343 20.2521H7.09918C7.09918 20.4028 7.14271 20.5439 7.23368 20.6652L7.62108 20.3746ZM7.58343 20.2521C7.58343 20.1868 7.60178 20.1523 7.62728 20.1268L7.28486 19.7844C7.15734 19.9119 7.09918 20.0751 7.09918 20.2521H7.58343ZM7.62728 20.1268C7.66309 20.091 7.70279 20.0734 7.76212 20.0734V19.5892C7.57916 19.5892 7.41483 19.6544 7.28486 19.7844L7.62728 20.1268ZM7.76212 20.0734C7.79403 20.0734 7.82396 20.0803 7.85468 20.0957L8.07124 19.6625C7.97443 19.6141 7.87047 19.5892 7.76212 19.5892V20.0734ZM7.85468 20.0957C7.88883 20.1127 7.90912 20.1312 7.92228 20.1487L8.30968 19.8582C8.24632 19.7737 8.1646 19.7092 8.07124 19.6625L7.85468 20.0957ZM7.92574 20.1532L9.94372 22.7163L10.3242 22.4168L8.30622 19.8537L7.92574 20.1532ZM10.3247 22.7156L12.3427 20.1334L11.9612 19.8352L9.94318 22.4175L10.3247 22.7156ZM12.3514 20.1215C12.3698 20.0947 12.3947 20.0734 12.4675 20.0734V19.5892C12.2599 19.5892 12.0743 19.6699 11.9524 19.8471L12.3514 20.1215ZM12.4675 20.0734C12.5166 20.0734 12.5542 20.0883 12.5928 20.1268L12.9352 19.7844C12.808 19.6572 12.648 19.5892 12.4675 19.5892V20.0734ZM12.5998 20.1335C12.632 20.1633 12.6462 20.194 12.6462 20.2425H13.1305C13.1305 20.0615 13.0618 19.901 12.9282 19.7777L12.5998 20.1335ZM12.6462 20.2425C12.6462 20.2822 12.636 20.3118 12.616 20.3392L13.0076 20.624C13.0897 20.5112 13.1305 20.3814 13.1305 20.2425H12.6462ZM12.6237 20.3292L10.4145 23.0549L10.7907 23.3598L12.9999 20.6341L12.6237 20.3292ZM10.4147 23.3601L12.624 26.0763L12.9997 25.7707L10.7904 23.0546L10.4147 23.3601ZM12.6319 26.0854C12.6419 26.0966 12.6558 26.118 12.6558 26.1721H13.14C13.14 26.0223 13.0965 25.8779 12.9918 25.7615L12.6319 26.0854ZM12.6558 26.1721C12.6558 26.2315 12.6382 26.2712 12.6024 26.307L12.9448 26.6494C13.0748 26.5194 13.14 26.3551 13.14 26.1721H12.6558ZM12.5957 26.3139C12.5712 26.3405 12.5372 26.3604 12.4675 26.3604V26.8446C12.6529 26.8446 12.8229 26.7817 12.9515 26.6424L12.5957 26.3139ZM12.4675 26.3604C12.4105 26.3604 12.3657 26.3416 12.3182 26.2772L11.9283 26.5644C12.0593 26.7422 12.244 26.8446 12.4675 26.8446V26.3604ZM12.3127 26.2701L10.266 23.6974L9.88709 23.9989L11.9338 26.5715L12.3127 26.2701ZM9.88579 23.699L7.86782 26.2813L8.24937 26.5794L10.2673 23.9972L9.88579 23.699ZM7.87259 26.2754C7.81418 26.3454 7.76686 26.3604 7.72386 26.3604V26.8446C7.9359 26.8446 8.11173 26.7448 8.2446 26.5854L7.87259 26.2754ZM15.0871 26.3825L14.911 26.5493L14.9205 26.5583L15.0871 26.3825ZM15.0392 19.9652L15.2106 20.1365L15.2167 20.1299L15.0392 19.9652ZM15.6513 19.9652L15.4739 20.1299L15.48 20.1365L15.4866 20.1426L15.6513 19.9652ZM15.7852 25.6844H15.5431V25.9265H15.7852V25.6844ZM19.2187 25.8183L19.0412 25.983L19.0473 25.9896L19.0539 25.9957L19.2187 25.8183ZM19.2187 26.4304L19.0538 26.2528L19.0474 26.2592L19.2187 26.4304ZM15.5174 26.3126C15.4141 26.3126 15.3301 26.2792 15.2536 26.2068L14.9205 26.5583C15.0863 26.7154 15.2893 26.7968 15.5174 26.7968V26.3126ZM15.2628 26.216C15.1904 26.1395 15.157 26.0555 15.157 25.9522H14.6728C14.6728 26.1803 14.7542 26.3833 14.9113 26.5491L15.2628 26.216ZM15.157 25.9522V20.2712H14.6728V25.9522H15.157ZM15.157 20.2712C15.157 20.2119 15.1746 20.1722 15.2105 20.1364L14.868 19.794C14.7381 19.9239 14.6728 20.0883 14.6728 20.2712H15.157ZM15.2167 20.1299C15.254 20.0897 15.2919 20.0734 15.3453 20.0734V19.5892C15.1564 19.5892 14.9902 19.6621 14.8618 19.8004L15.2167 20.1299ZM15.3453 20.0734C15.3987 20.0734 15.4365 20.0897 15.4739 20.1299L15.8288 19.8004C15.7003 19.6621 15.5342 19.5892 15.3453 19.5892V20.0734ZM15.4866 20.1426C15.5268 20.18 15.5431 20.2178 15.5431 20.2712H16.0274C16.0274 20.0823 15.9544 19.9162 15.8161 19.7878L15.4866 20.1426ZM15.5431 20.2712V25.6844H16.0274V20.2712H15.5431ZM15.7852 25.9265H18.9126V25.4423H15.7852V25.9265ZM18.9126 25.9265C18.966 25.9265 19.0039 25.9428 19.0412 25.983L19.3961 25.6535C19.2677 25.5152 19.1015 25.4423 18.9126 25.4423V25.9265ZM19.0539 25.9957C19.0941 26.0331 19.1104 26.0709 19.1104 26.1243H19.5947C19.5947 25.9354 19.5217 25.7693 19.3834 25.6408L19.0539 25.9957ZM19.1104 26.1243C19.1104 26.1777 19.0941 26.2156 19.0539 26.2529L19.3834 26.6078C19.5217 26.4794 19.5947 26.3132 19.5947 26.1243H19.1104ZM19.0474 26.2592C19.0116 26.295 18.9719 26.3126 18.9126 26.3126V26.7968C19.0956 26.7968 19.2599 26.7315 19.3899 26.6016L19.0474 26.2592ZM18.9126 26.3126H15.5174V26.7968H18.9126V26.3126ZM20.9227 26.1913L21.0188 25.969L21.0158 25.9678L20.9227 26.1913ZM20.7314 26.0382L20.5298 26.1727L20.5356 26.1806L20.7314 26.0382ZM20.7601 25.5218L20.5822 25.3576L20.5816 25.3582L20.7601 25.5218ZM21.2287 25.4357L21.3273 25.2146L21.327 25.2145L21.2287 25.4357ZM24.5665 24.2498L24.4036 24.429L24.4076 24.4325L24.5665 24.2498ZM24.0405 23.9533L23.9577 24.1809L23.9639 24.183L24.0405 23.9533ZM23.1415 23.6855L23.2029 23.4513L23.2022 23.4512L23.1415 23.6855ZM21.8886 23.303L21.7987 23.5278L21.8026 23.5293L21.8886 23.303ZM21.0661 22.7387L20.8882 22.9029L21.0661 22.7387ZM21.0087 20.759L21.2116 20.8913L21.2128 20.8893L21.0087 20.759ZM21.8504 20.0513L21.9525 20.2708L21.9542 20.27L21.8504 20.0513ZM25.1021 20.0991L25.0179 20.3261L25.0206 20.3271L25.1021 20.0991ZM25.2647 20.759L25.4495 20.9154V20.9154L25.2647 20.759ZM24.8343 20.8451L24.9243 20.62L24.9135 20.6163L24.8343 20.8451ZM22.0608 20.8738L21.9362 20.6661L21.9343 20.6673L22.0608 20.8738ZM21.8121 22.2414L21.6407 22.4128L21.6485 22.4199L21.8121 22.2414ZM22.3764 22.5761L22.292 22.8032L22.2998 22.8058L22.3764 22.5761ZM23.3041 22.8248L23.3607 22.5894L23.3582 22.5888L23.3041 22.8248ZM24.5187 23.1882L24.4296 23.4133L24.4311 23.414L24.5187 23.1882ZM25.3125 23.7525L25.128 23.9093L25.1303 23.9119L25.3125 23.7525ZM25.3412 25.7513L25.537 25.8937L25.5385 25.8916L25.3412 25.7513ZM24.4804 26.4112L24.5763 26.6336L24.4804 26.4112ZM23.1989 26.4082C22.4205 26.4082 21.6946 26.2613 21.0188 25.969L20.8266 26.4135C21.5661 26.7333 22.3578 26.8924 23.1989 26.8924V26.4082ZM21.0158 25.9678C20.9822 25.9538 20.9533 25.9318 20.9272 25.8958L20.5356 26.1806C20.6115 26.285 20.7101 26.365 20.8295 26.4148L21.0158 25.9678ZM20.9328 25.9039C20.9053 25.8627 20.897 25.8291 20.897 25.7991H20.4128C20.4128 25.935 20.4554 26.0608 20.5299 26.1725L20.9328 25.9039ZM20.897 25.7991C20.897 25.7484 20.9113 25.7151 20.9386 25.6854L20.5816 25.3582C20.4686 25.4815 20.4128 25.6331 20.4128 25.7991H20.897ZM20.938 25.686C20.9678 25.6538 20.9985 25.6396 21.047 25.6396V25.1553C20.866 25.1553 20.7054 25.224 20.5822 25.3576L20.938 25.686ZM21.047 25.6396C21.0774 25.6396 21.1044 25.6454 21.1304 25.657L21.327 25.2145C21.2382 25.175 21.1441 25.1553 21.047 25.1553V25.6396ZM21.1302 25.6569C21.7491 25.9327 22.4108 26.07 23.1128 26.07V25.5857C22.4758 25.5857 21.8815 25.4616 21.3273 25.2146L21.1302 25.6569ZM23.1128 26.07C23.6895 26.07 24.1641 25.9766 24.501 25.7552C24.8557 25.5222 25.0286 25.1666 25.0286 24.728H24.5443C24.5443 25.0226 24.4383 25.217 24.2351 25.3505C24.0141 25.4958 23.6519 25.5857 23.1128 25.5857V26.07ZM25.0286 24.728C25.0286 24.4654 24.9239 24.2397 24.7254 24.0671L24.4076 24.4325C24.5024 24.5149 24.5443 24.6081 24.5443 24.728H25.0286ZM24.7294 24.0706C24.5603 23.9169 24.3541 23.8026 24.1171 23.7236L23.9639 24.183C24.1477 24.2443 24.2922 24.3276 24.4036 24.429L24.7294 24.0706ZM24.1232 23.7258C23.9024 23.6455 23.5944 23.554 23.2029 23.4513L23.0801 23.9197C23.4665 24.0211 23.7578 24.1081 23.9577 24.1809L24.1232 23.7258ZM23.2022 23.4512C22.6902 23.3184 22.2819 23.1934 21.9746 23.0766L21.8026 23.5293C22.1329 23.6548 22.5599 23.7849 23.0807 23.9199L23.2022 23.4512ZM21.9785 23.0782C21.6927 22.9638 21.4487 22.7962 21.244 22.5745L20.8882 22.9029C21.1426 23.1785 21.4469 23.3871 21.7987 23.5278L21.9785 23.0782ZM21.244 22.5745C21.0646 22.3801 20.9639 22.112 20.9639 21.7441H20.4797C20.4797 22.205 20.6086 22.6 20.8882 22.9029L21.244 22.5745ZM20.9639 21.7441C20.9639 21.4257 21.0469 21.1437 21.2115 20.8912L20.8059 20.6267C20.588 20.9609 20.4797 21.3355 20.4797 21.7441H20.9639ZM21.2128 20.8893C21.3758 20.6339 21.6182 20.4264 21.9525 20.2708L21.7482 19.8318C21.3429 20.0204 21.0242 20.2847 20.8047 20.6287L21.2128 20.8893ZM21.9542 20.27C22.2907 20.1103 22.703 20.0256 23.1989 20.0256V19.5413C22.6491 19.5413 22.1624 19.6352 21.7466 19.8325L21.9542 20.27ZM23.1989 20.0256C23.876 20.0256 24.4813 20.1271 25.0179 20.3261L25.1863 19.8721C24.5879 19.6502 23.9245 19.5413 23.1989 19.5413V20.0256ZM25.0206 20.3271C25.0731 20.3458 25.0945 20.367 25.1046 20.3814C25.1147 20.3959 25.1277 20.4242 25.1277 20.4816H25.612C25.612 20.3478 25.5803 20.2167 25.5013 20.1037C25.4221 19.9905 25.3096 19.9161 25.1835 19.8711L25.0206 20.3271ZM25.1277 20.4816C25.1277 20.5225 25.1155 20.5604 25.0798 20.6026L25.4495 20.9154C25.554 20.7918 25.612 20.6448 25.612 20.4816H25.1277ZM25.0798 20.6026C25.0586 20.6277 25.0355 20.6412 24.9873 20.6412V21.1254C25.1687 21.1254 25.3304 21.0561 25.4495 20.9154L25.0798 20.6026ZM24.9873 20.6412C24.9938 20.6412 24.992 20.6421 24.9791 20.6389C24.9668 20.6358 24.9488 20.6301 24.9242 20.6203L24.7444 21.0699C24.8177 21.0992 24.9028 21.1254 24.9873 21.1254V20.6412ZM24.9135 20.6163C24.3905 20.4352 23.8505 20.3447 23.2945 20.3447V20.829C23.7969 20.829 24.2834 20.9106 24.7551 21.0739L24.9135 20.6163ZM23.2945 20.3447C22.7619 20.3447 22.3037 20.4456 21.9362 20.6661L22.1853 21.0814C22.4554 20.9193 22.8197 20.829 23.2945 20.829V20.3447ZM21.9343 20.6673C21.5556 20.8991 21.35 21.2422 21.35 21.6771H21.8343C21.8343 21.4234 21.9411 21.2309 22.1872 21.0802L21.9343 20.6673ZM21.35 21.6771C21.35 21.9633 21.4438 22.2155 21.6409 22.4126L21.9833 22.0702C21.8871 21.974 21.8343 21.85 21.8343 21.6771H21.35ZM21.6485 22.4199C21.8277 22.5841 22.0439 22.7109 22.2921 22.8031L22.4607 22.3491C22.2626 22.2756 22.1025 22.1792 21.9757 22.0629L21.6485 22.4199ZM22.2998 22.8058C22.5399 22.8858 22.8576 22.9707 23.2499 23.0608L23.3582 22.5888C22.9727 22.5003 22.6719 22.4194 22.4529 22.3464L22.2998 22.8058ZM23.2475 23.0602C23.7456 23.18 24.1383 23.298 24.4296 23.4133L24.6078 22.9631C24.287 22.8361 23.8699 22.7118 23.3607 22.5894L23.2475 23.0602ZM24.4311 23.414C24.7061 23.5206 24.9373 23.685 25.128 23.9093L25.497 23.5957C25.2541 23.3099 24.9561 23.0981 24.6062 22.9625L24.4311 23.414ZM25.1303 23.9119C25.305 24.1116 25.4051 24.3936 25.4051 24.7854H25.8893C25.8893 24.31 25.7663 23.9034 25.4947 23.593L25.1303 23.9119ZM25.4051 24.7854C25.4051 25.0929 25.3183 25.3657 25.1439 25.611L25.5385 25.8916C25.7721 25.5631 25.8893 25.1919 25.8893 24.7854H25.4051ZM25.1454 25.6089C24.9707 25.849 24.721 26.0439 24.3846 26.1889L24.5763 26.6336C24.9795 26.4598 25.3035 26.2147 25.537 25.8937L25.1454 25.6089ZM24.3846 26.1889C24.0505 26.3329 23.657 26.4082 23.1989 26.4082V26.8924C23.7098 26.8924 24.1707 26.8084 24.5763 26.6336L24.3846 26.1889Z" fill="#052742"/>
<mask id="mask0_2298_64970" style="mask-type:alpha" maskUnits="userSpaceOnUse" x="0" y="0" width="33" height="38">
<path d="M30.2659 37.2889H2.66384C1.19291 37.2889 0.000488281 36.0965 0.000488281 34.6256V2.66531C0.000488281 1.19438 1.19291 0.00195312 2.66384 0.00195312H20.581L32.9292 12.3502V34.6256C32.9292 36.0965 31.7368 37.2889 30.2659 37.2889Z" fill="url(#paint0_linear_2298_64970)"/>
</mask>
<g mask="url(#mask0_2298_64970)">
<ellipse opacity="0.05" cx="-1.75499" cy="-1.51081" rx="27.0573" ry="25.9677" fill="url(#paint1_linear_2298_64970)"/>
<ellipse opacity="0.07" cx="-1.75452" cy="-1.51018" rx="17.0092" ry="16.2828" fill="url(#paint2_linear_2298_64970)"/>
</g>
<g filter="url(#filter1_d_2298_64970)">
<path d="M32.9298 12.3502H23.2449C21.774 12.3502 20.5815 11.1578 20.5815 9.68688V0.00195312L32.9298 12.3502Z" fill="#76FFFF"/>
</g>
<defs>
<filter id="filter0_f_2298_64970" x="1.08988" y="13.3196" width="30.9919" height="19.6127" filterUnits="userSpaceOnUse" color-interpolation-filters="sRGB">
<feFlood flood-opacity="0" result="BackgroundImageFix"/>
<feBlend mode="normal" in="SourceGraphic" in2="BackgroundImageFix" result="shape"/>
<feGaussianBlur stdDeviation="2.3607" result="effect1_foregroundBlur_2298_64970"/>
</filter>
<filter id="filter1_d_2298_64970" x="17.7971" y="-2.90353" width="18.4015" height="18.4007" filterUnits="userSpaceOnUse" color-interpolation-filters="sRGB">
<feFlood flood-opacity="0" result="BackgroundImageFix"/>
<feColorMatrix in="SourceAlpha" type="matrix" values="0 0 0 0 0 0 0 0 0 0 0 0 0 0 0 0 0 0 127 0" result="hardAlpha"/>
<feOffset dx="0.242123" dy="0.121062"/>
<feGaussianBlur stdDeviation="1.51327"/>
<feColorMatrix type="matrix" values="0 0 0 0 0 0 0 0 0 0 0 0 0 0 0 0 0 0 0.33 0"/>
<feBlend mode="normal" in2="BackgroundImageFix" result="effect1_dropShadow_2298_64970"/>
<feBlend mode="normal" in="SourceGraphic" in2="effect1_dropShadow_2298_64970" result="shape"/>
</filter>
<linearGradient id="paint0_linear_2298_64970" x1="16.4649" y1="0.00195312" x2="16.4649" y2="37.2889" gradientUnits="userSpaceOnUse">
<stop offset="0.000265127" stop-color="#83CC70"/>
<stop offset="1" stop-color="#61A850"/>
</linearGradient>
<linearGradient id="paint1_linear_2298_64970" x1="0.209566" y1="-0.618444" x2="8.41502" y2="21.1589" gradientUnits="userSpaceOnUse">
<stop stop-color="white" stop-opacity="0"/>
<stop offset="1" stop-color="white"/>
</linearGradient>
<linearGradient id="paint2_linear_2298_64970" x1="-0.519533" y1="-0.950638" x2="4.61579" y2="12.7132" gradientUnits="userSpaceOnUse">
<stop stop-color="white" stop-opacity="0"/>
<stop offset="1" stop-color="white"/>
</linearGradient>
</defs>
</svg>
