<svg width="24" height="24" viewBox="0 0 24 24" fill="none" xmlns="http://www.w3.org/2000/svg">
<path d="M21.1875 12.375H19.875C19.7719 12.375 19.6875 12.4594 19.6875 12.5625V20.0625H4.3125V4.6875H11.8125C11.9156 4.6875 12 4.60312 12 4.5V3.1875C12 3.08437 11.9156 3 11.8125 3H3.375C2.96016 3 2.625 3.33516 2.625 3.75V21C2.625 21.4148 2.96016 21.75 3.375 21.75H20.625C21.0398 21.75 21.375 21.4148 21.375 21V12.5625C21.375 12.4594 21.2906 12.375 21.1875 12.375Z" fill="#18FFFF"/>
<path d="M8.34143 12.9117L8.2969 15.6984C8.29456 15.907 8.46331 16.0781 8.6719 16.0781H8.68127L11.4469 16.0102C11.4938 16.0078 11.5406 15.9891 11.5735 15.9562L21.3211 6.22969C21.3938 6.15703 21.3938 6.0375 21.3211 5.96484L18.4078 3.05391C18.3703 3.01641 18.3235 3 18.2742 3C18.225 3 18.1782 3.01875 18.1406 3.05391L8.39534 12.7805C8.36149 12.8159 8.34223 12.8627 8.34143 12.9117ZM9.82971 13.4648L18.2742 5.03906L19.3336 6.09609L10.8844 14.5266L9.81331 14.5523L9.82971 13.4648Z" fill="#18FFFF"/>
</svg>
